<?xml version="1.0"?>
<svg width="450" height="259" xmlns="http://www.w3.org/2000/svg" xmlns:svg="http://www.w3.org/2000/svg">
 <mask height="48" id="path-65-outside-1" maskUnits="userSpaceOnUse" width="33" x="211.3" y="34.7">
  <rect fill="white" height="48" id="svg_1" width="33" x="211.3" y="34.7"/>
  <path clip-rule="evenodd" d="m227.38,36.7c7.77,0 14.07,2.49 14.07,5.56c0,0.11 -0.01,0.21 -0.02,0.32c-0.01,0 0,0.01 0.01,0.01l0,0c0,0 0.01,0 0.01,0.01l0,0.64l0,0.33l0,5.56l0,0.33l0,23.89c0,0 -0.01,0.01 -0.01,0.01l0,0c0,0 -0.01,0 -0.01,0c0.01,0.11 0.02,0.22 0.02,0.32c0,3.8 -6.3,6.88 -14.07,6.88c-7.78,0 -14.08,-3.08 -14.08,-6.88c0,-0.1 0.01,-0.21 0.02,-0.32c0,0 0,0 -0.01,0l0,0c0,0 -0.01,-0.01 -0.01,-0.01l0,-23.89l0,-0.33l0,-5.56l0,-0.33l0,-0.64c0,-0.01 0.01,-0.01 0.01,-0.01l0,0c0.01,0 0.02,-0.01 0.02,-0.01c-0.02,-0.11 -0.03,-0.21 -0.03,-0.32c0,-3.07 6.3,-5.56 14.08,-5.56z" fill-rule="evenodd" id="svg_2"/>
 </mask>
 <mask height="45" id="mask0" maskUnits="userSpaceOnUse" width="29" x="213" y="36">
  <path d="m241.45,73.68c0,3.8 -6.3,6.88 -14.07,6.88c-7.78,0 -14.08,-3.08 -14.08,-6.88c0,-3.79 6.3,-6.87 14.08,-6.87c7.77,0 14.07,3.08 14.07,6.87z" fill="#242424" id="svg_3"/>
  <path d="m241.45,43.57c0,3.8 -6.3,6.87 -14.07,6.87c-7.78,0 -14.08,-3.07 -14.08,-6.87c0,-3.8 6.3,-6.87 14.08,-6.87c7.77,0 14.07,3.07 14.07,6.87z" fill="#242424" id="svg_4"/>
  <path d="m213.3,43.24l28.15,0l0,30.12l-28.15,0l0,-30.12z" fill="#242424" id="svg_5"/>
  <ellipse cx="227.38" cy="42.26" fill="#FFD249" id="svg_6" rx="14.07" ry="5.56"/>
  <ellipse cx="227.38" cy="49.46" fill="#FFD249" id="svg_7" rx="14.07" ry="5.56"/>
  <rect fill="#FFD249" height="6.55" id="svg_8" width="28.14" x="213.3" y="42.59"/>
 </mask>
 <defs>
  <filter color-interpolation-filters="sRGB" filterUnits="userSpaceOnUse" height="92" id="filter0_d" width="183" x="5" y="7">
   <feFlood flood-opacity="0" result="BackgroundImageFix"/>
   <feColorMatrix in="SourceAlpha" result="hardAlpha" type="matrix" values="0 0 0 0 0 0 0 0 0 0 0 0 0 0 0 0 0 0 127 0"/>
   <feOffset dy="4"/>
   <feGaussianBlur stdDeviation="4"/>
   <feColorMatrix type="matrix" values="0 0 0 0 0 0 0 0 0 0 0 0 0 0 0 0 0 0 0.08 0"/>
   <feBlend in2="BackgroundImageFix"/>
   <feBlend in="SourceGraphic" in2="effect1_dropShadow"/>
  </filter>
  <filter color-interpolation-filters="sRGB" filterUnits="userSpaceOnUse" height="65" id="filter1_d" width="122" x="294" y="128">
   <feFlood flood-opacity="0" result="BackgroundImageFix"/>
   <feColorMatrix in="SourceAlpha" result="hardAlpha" type="matrix" values="0 0 0 0 0 0 0 0 0 0 0 0 0 0 0 0 0 0 127 0"/>
   <feOffset dy="4"/>
   <feGaussianBlur stdDeviation="4"/>
   <feColorMatrix type="matrix" values="0 0 0 0 0 0 0 0 0 0 0 0 0 0 0 0 0 0 0.08 0"/>
   <feBlend in2="BackgroundImageFix"/>
   <feBlend in="SourceGraphic" in2="effect1_dropShadow"/>
  </filter>
 </defs>
 <g class="layer">
  <title>Layer 1</title>
  <rect fill="white" height="259" id="svg_9" width="450"/>
  <g filter="url(#filter0_d)" id="svg_10">
   <path clip-rule="evenodd" d="m25.96,44.73c1.99,-10.18 10.98,-17.87 21.78,-17.87c4.58,0 8.84,1.39 12.37,3.76c6.5,-11.7 18.99,-19.62 33.34,-19.62c19.1,0 34.91,14.01 37.67,32.28c1.59,-0.36 3.24,-0.56 4.94,-0.56c8.99,0 16.73,5.33 20.22,13c2.18,-1.06 4.62,-1.66 7.21,-1.66c9.12,0 16.51,7.38 16.51,16.47c0,9.1 -7.39,16.47 -16.51,16.47l-27.43,0l-6.44,0l-63.31,0l-2.06,0l-29.05,0c-12.26,0 -22.2,-9.91 -22.2,-22.14c0,-8.94 5.31,-16.63 12.96,-20.13" fill="#F3F3F3" fill-rule="evenodd" id="svg_11"/>
  </g>
  <g filter="url(#filter1_d)" id="svg_12">
   <path clip-rule="evenodd" d="m399.77,153.75c-1.26,-6.57 -6.97,-11.52 -13.82,-11.52c-2.91,0 -5.61,0.89 -7.85,2.42c-4.12,-7.54 -12.06,-12.65 -21.17,-12.65c-12.12,0 -22.15,9.03 -23.91,20.81c-1.01,-0.23 -2.05,-0.36 -3.13,-0.36c-5.71,0 -10.62,3.44 -12.83,8.38c-1.39,-0.68 -2.94,-1.07 -4.58,-1.07c-5.79,0 -10.48,4.76 -10.48,10.62c0,5.87 4.69,10.62 10.48,10.62l17.41,0l4.09,0l40.19,0l1.3,0l18.44,0c7.78,0 14.09,-6.39 14.09,-14.27c0,-5.77 -3.37,-10.73 -8.23,-12.98z" fill="#F3F3F3" fill-rule="evenodd" id="svg_13"/>
  </g>
  <path d="m200.81,199.09l29.03,-18.14" id="svg_14" stroke="#242424" stroke-linecap="round" stroke-linejoin="bevel" stroke-width="2"/>
  <path d="m225.26,178.4l1.67,1.36c0.32,0.29 0.76,0.57 0.76,0.99c0.01,0.36 0.09,0.72 0.3,1.03c0.47,0.72 1.28,1.1 2.14,1.04c0.53,-0.03 1.02,-0.23 1.4,-0.57c0.38,-0.33 0.63,-0.77 0.69,-1.25c0.06,-0.47 -0.06,-0.96 -0.34,-1.36c-0.29,-0.41 -0.71,-0.71 -1.21,-0.86c-0.63,-0.18 -1.17,-0.54 -1.56,-1.02c-0.39,-0.49 -0.6,-1.07 -0.6,-1.67l0,-37.18c0,-0.61 0.5,-1.11 1.12,-1.11l0,0c0.62,0 1.12,0.5 1.12,1.11l0,35.53l0,1.15c0,0.28 0.21,0.55 0.48,0.59c0.03,0 0.07,0.01 0.11,0.01c0.08,0 0.15,0.04 0.22,0.06l0,0c1.1,0.33 2.05,0.98 2.69,1.85c0.65,0.88 0.96,1.93 0.88,2.98c-0.17,2.34 -2.24,4.23 -4.79,4.39c-0.13,0.01 -0.26,0.01 -0.38,0.01c-1.32,0 -2.54,-0.46 -3.53,-1.27c-1.54,-1.27 -1.6,-3.21 -1.49,-4.25c0.03,-0.32 -0.06,-0.64 -0.25,-0.9l-0.21,-0.29c-0.28,-0.31 0.2,-0.85 0.78,-0.37z" fill="#242424" id="svg_15"/>
  <path d="m259.78,199.09l-29.94,-18.14" id="svg_16" stroke="#242424" stroke-linecap="round" stroke-linejoin="bevel" stroke-width="2"/>
  <path d="m200.24,112.46l54.28,0l1.4,15.01c0.54,5.87 -4.07,10.93 -9.96,10.93l-18.58,0l-18.58,0c-5.89,0 -10.51,-5.06 -9.96,-10.93l1.4,-15.01z" fill="white" id="svg_17" stroke="#242424" stroke-width="2"/>
  <rect fill="white" height="32.66" id="svg_18" width="54.43" x="210.81" y="198.99"/>
  <path d="m202.71,221.1l-7.34,10.9l0,-32.91l14.67,0l0,32.91l-7.33,-10.9z" fill="#FFD249" id="svg_19"/>
  <path d="m202.71,221.1l7.33,10.9l-14.67,0l7.34,-10.9z" fill="#FFD249" id="svg_20"/>
  <path d="m210.04,201.09c0,-1.1 0.9,-2 2,-2l0.93,0l11.74,0l14.67,0l11.73,0l12.67,0c1.1,0 2,0.9 2,2l0,28.91c0,1.1 -0.9,2 -2,2l-51.74,0c-1.1,0 -2,-0.9 -2,-2l0,-28.91z" id="svg_21" stroke="#242424" stroke-linecap="round" stroke-linejoin="round" stroke-width="2"/>
  <path d="m210.04,199.09l-12.67,0c-1.1,0 -2,0.9 -2,2l0,28.91c0,1.1 0.9,2 2,2l12.67,0" id="svg_22" stroke="#242424" stroke-linecap="round" stroke-linejoin="round" stroke-width="2"/>
  <path d="m202.71,205.1l0,16" id="svg_23" stroke="#242424" stroke-linecap="round" stroke-linejoin="round"/>
  <path d="m196.19,231.24l6.52,-10.14l7.33,10.9" id="svg_24" stroke="#242424" stroke-linecap="round" stroke-linejoin="round"/>
  <rect fill="#242424" height="0.91" id="svg_25" rx="0.45" transform="matrix(-0.865984 -0.500071 0.499929 -0.866066 233.691 179.191)" width="3.54"/>
  <ellipse fill="#FFD249" id="svg_26" rx="0.45" ry="0.45" transform="matrix(-0.865984 -0.500071 0.499929 -0.866066 233.525 178.572)"/>
  <rect fill="white" height="10.46" id="svg_27" rx="5.23" stroke="#242424" stroke-width="2" transform="matrix(0.916069 -0.401022 0.400894 0.916125 131.577 120.607)" width="62.99"/>
  <ellipse fill="white" id="svg_28" rx="7.47" ry="7.47" stroke="#242424" stroke-width="2" transform="matrix(0.985676 -0.168651 0.168588 0.985687 192.083 98.7836)"/>
  <path d="m142.57,97.61c0,-3 -5.07,-5.43 -11.33,-5.43c-6.26,0 -11.33,2.43 -11.33,5.43c0,0 0,0 0,0l0,26.86l0,0c0,0.2 0,0.41 0,0.62c0,0 0,0.01 0,0.02c0,3 5.07,5.43 11.33,5.43c6.26,0 11.33,-2.43 11.33,-5.43c0,-0.01 0,-0.02 0,-0.02c0,-0.21 0,-0.42 0,-0.62l0,0l0,-26.86z" fill="white" id="svg_29"/>
  <path d="m142.57,97.61c0,-3 -5.07,-5.43 -11.33,-5.43c-6.26,0 -11.33,2.43 -11.33,5.43c0,0 0,0 0,0m22.66,0l0,26.86l0,0c0,0.2 0,0.41 0,0.62c0,0 0,0.01 0,0.02c0,3 -5.07,5.43 -11.33,5.43c-6.26,0 -11.33,-2.43 -11.33,-5.43c0,-0.01 0,-0.02 0,-0.02c0,-0.21 0,-0.42 0,-0.62l0,0l0,-26.86m22.66,0l0,0c-7.26,2.98 -15.4,2.98 -22.66,0l0,0" id="svg_30" stroke="#242424" stroke-width="2"/>
  <path d="m135.1,94.42c0,2.47 -1.84,2.24 -4.11,2.24c-2.27,0 -4.11,0.23 -4.11,-2.24c0,-2.48 1.84,-5.23 4.11,-5.23c2.27,0 4.11,2.75 4.11,5.23z" fill="#242424" id="svg_31"/>
  <path d="m189.15,45.31c0,-2.26 -4.24,-4.09 -9.47,-4.09c-5.22,0 -9.46,1.83 -9.46,4.09c0,0 0,0 0,0l0,20.23l0,0c0,0.15 0,0.31 0,0.47c0,0 0,0 0,0.01c0,2.26 4.24,4.09 9.46,4.09c5.23,0 9.47,-1.83 9.47,-4.09c0,-0.01 0,-0.01 0,-0.01c0,-0.16 0,-0.32 0,-0.47l0,0l0,-20.23z" fill="white" id="svg_32"/>
  <path d="m189.15,45.31c0,-2.26 -4.24,-4.09 -9.47,-4.09c-5.22,0 -9.46,1.83 -9.46,4.09c0,0 0,0 0,0m18.93,0l0,20.23l0,0c0,0.15 0,0.31 0,0.47c0,0 0,0 0,0.01c0,2.26 -4.24,4.09 -9.47,4.09c-5.22,0 -9.46,-1.83 -9.46,-4.09c0,-0.01 0,-0.01 0,-0.01c0,-0.16 0,-0.32 0,-0.47l0,0l0,-20.23m18.93,0l0,0c-6.11,2.26 -12.83,2.26 -18.93,0l0,0" id="svg_33" stroke="#242424" stroke-width="2"/>
  <rect fill="white" height="10.46" id="svg_34" rx="5.23" stroke="#242424" stroke-width="2" transform="matrix(0.87512 0.483905 -0.483764 0.875198 184.743 57.1592)" width="30.57"/>
  <ellipse cx="204.84" cy="73.6" fill="white" id="svg_35" rx="7.47" ry="7.47" stroke="#242424" stroke-width="2"/>
  <ellipse cx="179.68" cy="44.58" id="svg_36" rx="28.39" ry="12.58" stroke="#242424" stroke-width="2"/>
  <path d="m182.42,42.46c0,1.65 -1.23,1.49 -2.74,1.49c-1.51,0 -2.74,0.16 -2.74,-1.49c0,-1.65 1.23,-3.48 2.74,-3.48c1.51,0 2.74,1.83 2.74,3.48z" fill="#242424" id="svg_37"/>
  <path d="m189.15,45.31c0,-2.26 -4.24,-4.09 -9.47,-4.09c-5.22,0 -9.46,1.83 -9.46,4.09c0,0 0,0 0,0l0,20.23l0,0c0,0.15 0,0.31 0,0.47c0,0 0,0 0,0.01c0,2.26 4.24,4.09 9.46,4.09c5.23,0 9.47,-1.83 9.47,-4.09c0,-0.01 0,-0.01 0,-0.01c0,-0.16 0,-0.32 0,-0.47l0,0l0,-20.23z" fill="#FFD249" id="svg_38"/>
  <path d="m189.15,45.31c0,-2.26 -4.24,-4.09 -9.47,-4.09c-5.22,0 -9.46,1.83 -9.46,4.09c0,0 0,0 0,0m18.93,0l0,20.23l0,0c0,0.15 0,0.31 0,0.47c0,0 0,0 0,0.01c0,2.26 -4.24,4.09 -9.47,4.09c-5.22,0 -9.46,-1.83 -9.46,-4.09c0,-0.01 0,-0.01 0,-0.01c0,-0.16 0,-0.32 0,-0.47l0,0l0,-20.23m18.93,0l0,0c-6.11,2.26 -12.83,2.26 -18.93,0l0,0" id="svg_39" stroke="#242424" stroke-width="2"/>
  <rect fill="white" height="10.46" id="svg_40" rx="5.23" stroke="#242424" stroke-width="2" transform="matrix(0.87512 0.483905 -0.483764 0.875198 184.743 57.1592)" width="30.57"/>
  <ellipse cx="204.84" cy="73.6" fill="#666666" id="svg_41" rx="7.47" ry="7.47" stroke="#242424" stroke-width="2"/>
  <ellipse cx="179.68" cy="44.58" id="svg_42" rx="28.39" ry="12.58" stroke="#242424" stroke-width="2"/>
  <path d="m182.42,42.46c0,1.65 -1.23,1.49 -2.74,1.49c-1.51,0 -2.74,0.16 -2.74,-1.49c0,-1.65 1.23,-3.48 2.74,-3.48c1.51,0 2.74,1.83 2.74,3.48z" fill="#242424" id="svg_43"/>
  <rect fill="white" height="10.46" id="svg_44" rx="5.23" stroke="#242424" stroke-width="2" transform="matrix(0.916069 -0.401022 0.400894 0.916125 131.576 120.607)" width="62.99"/>
  <ellipse fill="#666666" id="svg_45" rx="7.47" ry="7.47" stroke="#242424" stroke-width="2" transform="matrix(0.985676 -0.168651 0.168588 0.985687 192.083 98.7836)"/>
  <path d="m142.57,97.61c0,-3 -5.07,-5.43 -11.33,-5.43c-6.26,0 -11.33,2.43 -11.33,5.43c0,0 0,0 0,0l0,26.86l0,0c0,0.2 0,0.41 0,0.62c0,0 0,0.01 0,0.02c0,3 5.07,5.43 11.33,5.43c6.26,0 11.33,-2.43 11.33,-5.43c0,-0.01 0,-0.02 0,-0.02c0,-0.21 0,-0.42 0,-0.62l0,0l0,-26.86z" fill="#FFD249" id="svg_46"/>
  <path d="m142.57,97.61c0,-3 -5.07,-5.43 -11.33,-5.43c-6.26,0 -11.33,2.43 -11.33,5.43c0,0 0,0 0,0m22.66,0l0,26.86l0,0c0,0.2 0,0.41 0,0.62c0,0 0,0.01 0,0.02c0,3 -5.07,5.43 -11.33,5.43c-6.26,0 -11.33,-2.43 -11.33,-5.43c0,-0.01 0,-0.02 0,-0.02c0,-0.21 0,-0.42 0,-0.62l0,0l0,-26.86m22.66,0l0,0c-7.26,2.98 -15.4,2.98 -22.66,0l0,0" id="svg_47" stroke="#242424" stroke-width="2"/>
  <path d="m160.9,95.77c0,6.26 -13.02,11.33 -29.07,11.33m-29.07,-11.33c0,-6.25 13.02,-11.32 29.07,-11.32" id="svg_48" stroke="#242424" stroke-linecap="round" stroke-width="2"/>
  <path d="m135.1,94.42c0,2.47 -1.84,2.24 -4.11,2.24c-2.27,0 -4.11,0.23 -4.11,-2.24c0,-2.48 1.84,-5.23 4.11,-5.23c2.27,0 4.11,2.75 4.11,5.23z" fill="#242424" id="svg_49"/>
  <path d="m265.85,45.31c0,-2.26 4.24,-4.09 9.47,-4.09c5.22,0 9.46,1.83 9.46,4.09c0,0 0,0 0,0l0,20.23l0,0c0,0.15 0,0.31 0,0.47c0,0 0,0 0,0.01c0,2.26 -4.23,4.09 -9.46,4.09c-5.23,0 -9.47,-1.83 -9.47,-4.09c0,-0.01 0,-0.01 0,-0.01c0.01,-0.16 0,-0.32 0,-0.47l0,0l0,-20.23z" fill="white" id="svg_50"/>
  <path d="m265.85,45.31c0,-2.26 4.24,-4.09 9.47,-4.09c5.22,0 9.46,1.83 9.46,4.09c0,0 0,0 0,0m-18.93,0l0,20.23l0,0c0,0.15 0.01,0.31 0,0.47c0,0 0,0 0,0.01c0,2.26 4.24,4.09 9.47,4.09c5.23,0 9.46,-1.83 9.46,-4.09c0,-0.01 0,-0.01 0,-0.01c0,-0.16 0,-0.32 0,-0.47l0,0l0,-20.23m-18.93,0l0,0c6.11,2.26 12.83,2.26 18.93,0l0,0" id="svg_51" stroke="#242424" stroke-width="2"/>
  <rect fill="white" height="10.46" id="svg_52" rx="5.23" stroke="#242424" stroke-width="2" transform="matrix(-0.87512 0.483905 0.483764 0.875198 270.257 57.1592)" width="30.57"/>
  <ellipse fill="white" id="svg_53" rx="7.47" ry="7.47" stroke="#242424" stroke-width="2" transform="matrix(-1 0 0 1 250.164 73.6)"/>
  <ellipse id="svg_54" rx="28.39" ry="12.58" stroke="#242424" stroke-width="2" transform="matrix(-1 0 0 1 275.318 44.5796)"/>
  <path d="m272.58,42.46c0,1.65 1.23,1.49 2.74,1.49c1.51,0 2.74,0.16 2.74,-1.49c0,-1.65 -1.23,-3.48 -2.74,-3.48c-1.51,0 -2.74,1.83 -2.74,3.48z" fill="#242424" id="svg_55"/>
  <path d="m265.85,45.31c0,-2.26 4.24,-4.09 9.47,-4.09c5.22,0 9.46,1.83 9.46,4.09c0,0 0,0 0,0l0,20.23l0,0c0,0.15 0,0.31 0,0.47c0,0 0,0 0,0.01c0,2.26 -4.23,4.09 -9.46,4.09c-5.23,0 -9.47,-1.83 -9.47,-4.09c0,-0.01 0,-0.01 0,-0.01c0.01,-0.16 0,-0.32 0,-0.47l0,0l0,-20.23z" fill="#FFD249" id="svg_56"/>
  <path d="m265.85,45.31c0,-2.26 4.24,-4.09 9.47,-4.09c5.22,0 9.46,1.83 9.46,4.09c0,0 0,0 0,0m-18.93,0l0,20.23l0,0c0,0.15 0.01,0.31 0,0.47c0,0 0,0 0,0.01c0,2.26 4.24,4.09 9.47,4.09c5.23,0 9.46,-1.83 9.46,-4.09c0,-0.01 0,-0.01 0,-0.01c0,-0.16 0,-0.32 0,-0.47l0,0l0,-20.23m-18.93,0l0,0c6.11,2.26 12.83,2.26 18.93,0l0,0" id="svg_57" stroke="#242424" stroke-width="2"/>
  <rect fill="white" height="10.46" id="svg_58" rx="5.23" stroke="#242424" stroke-width="2" transform="matrix(-0.87512 0.483905 0.483764 0.875198 270.257 57.1592)" width="30.57"/>
  <ellipse fill="#666666" id="svg_59" rx="7.47" ry="7.47" stroke="#242424" stroke-width="2" transform="matrix(-1 0 0 1 250.164 73.6)"/>
  <ellipse id="svg_60" rx="28.39" ry="12.58" stroke="#242424" stroke-width="2" transform="matrix(-1 0 0 1 275.318 44.5796)"/>
  <path d="m272.58,42.46c0,1.65 1.23,1.49 2.74,1.49c1.51,0 2.74,0.16 2.74,-1.49c0,-1.65 -1.23,-3.48 -2.74,-3.48c-1.51,0 -2.74,1.83 -2.74,3.48z" fill="#242424" id="svg_61"/>
  <rect fill="white" height="10.46" id="svg_62" rx="5.23" stroke="#242424" stroke-width="2" transform="matrix(-0.916069 -0.401022 -0.400894 0.916125 323.424 120.608)" width="62.99"/>
  <ellipse fill="#666666" id="svg_63" rx="7.47" ry="7.47" stroke="#242424" stroke-width="2" transform="matrix(-0.985676 -0.168651 -0.168588 0.985687 262.917 98.7846)"/>
  <path d="m312.43,97.61c0,-3 5.07,-5.43 11.33,-5.43c6.25,0 11.33,2.43 11.33,5.43c0,0 0,0 0,0l0,26.86l0,0c0,0.2 0,0.41 0,0.62c0,0.01 0,0.01 0,0.02c0,3 -5.07,5.43 -11.33,5.43c-6.26,0 -11.33,-2.43 -11.33,-5.43c0,-0.01 0,-0.01 0,-0.02c0,-0.21 0,-0.42 0,-0.62l0,0l0,-26.86z" fill="#FFD249" id="svg_64"/>
  <path d="m312.43,97.61c0,-3 5.07,-5.43 11.33,-5.43c6.25,0 11.33,2.43 11.33,5.43c0,0 0,0 0,0m-22.66,0l0,26.86l0,0c0,0.2 0,0.41 0,0.62c0,0.01 0,0.01 0,0.02c0,3 5.07,5.43 11.33,5.43c6.26,0 11.33,-2.43 11.33,-5.43c0,-0.01 0,-0.01 0,-0.02c0,-0.21 0,-0.42 0,-0.62l0,0l0,-26.86m-22.66,0l0,0c7.26,2.98 15.4,2.98 22.66,0l0,0" id="svg_65" stroke="#242424" stroke-width="2"/>
  <ellipse id="svg_66" rx="35.49" ry="14.82" stroke="#242424" stroke-width="2" transform="matrix(-1 0 0 1 323.51 95.7902)"/>
  <path d="m319.9,94.42c0,2.47 1.84,2.24 4.11,2.24c2.27,0 4.11,0.23 4.11,-2.24c0,-2.48 -1.84,-5.23 -4.11,-5.23c-2.27,0 -4.11,2.75 -4.11,5.23z" fill="#242424" id="svg_67"/>
  <path d="m211.71,61.15c-0.54,0 -1.01,0.34 -1.18,0.84l-1.48,4.39l-2.67,0c-0.49,0 -0.93,0.28 -1.13,0.71l-14.74,31.54c-0.08,0.17 -0.12,0.35 -0.12,0.53l0,11.89c0,0.42 0.2,0.8 0.55,1.03l5.73,3.9c0.06,0.04 0.13,0.08 0.2,0.11l0,3.63c0,0.56 0.38,1.06 0.93,1.2l6.85,1.77c14.82,3.83 30.38,3.83 45.2,0l6.85,-1.77c0.55,-0.14 0.93,-0.64 0.93,-1.2l0,-3.62c0.07,-0.03 0.13,-0.06 0.19,-0.1l6.21,-3.92c0.36,-0.23 0.58,-0.63 0.58,-1.05l0,-11.86c0,-0.19 -0.04,-0.37 -0.12,-0.54l-15.11,-31.55c-0.2,-0.43 -0.64,-0.7 -1.12,-0.7l-2.92,0l-1.49,-4.39c-0.17,-0.5 -0.64,-0.84 -1.18,-0.84l-30.96,0z" fill="white" id="svg_68"/>
  <path d="m209.05,66.38l1.48,-4.39c0.17,-0.5 0.64,-0.84 1.18,-0.84l30.96,0c0.54,0 1.01,0.34 1.18,0.84l1.49,4.39m-36.29,0l-2.67,0c-0.49,0 -0.93,0.28 -1.13,0.71l-14.74,31.54c-0.08,0.17 -0.12,0.35 -0.12,0.53l0,11.89c0,0.42 0.2,0.8 0.55,1.03l5.73,3.9c0.06,0.04 0.13,0.08 0.2,0.11m12.18,-49.71l-5.62,17.93l-5.63,17.94m-0.93,13.84l0,3.63c0,0.56 0.38,1.06 0.93,1.2l6.85,1.77c14.82,3.83 30.38,3.83 45.2,0l6.85,-1.77c0.55,-0.14 0.93,-0.64 0.93,-1.2l0,-3.62m-60.76,-0.01l0.93,-13.84m59.83,13.85c0.07,-0.03 0.13,-0.06 0.19,-0.1l6.21,-3.92c0.36,-0.23 0.58,-0.63 0.58,-1.05l0,-11.86c0,-0.19 -0.04,-0.37 -0.12,-0.54l-15.11,-31.55c-0.2,-0.43 -0.64,-0.7 -1.12,-0.7l-2.92,0m12.29,49.72l-0.93,-13.6m-11.36,-36.12l11.36,36.12m-58.9,-0.25l0,0c18.84,3.38 38.11,3.56 57,0.55l1.9,-0.3" id="svg_69" stroke="#242424" stroke-width="2"/>
  <path d="m242.13,84.56c-0.26,0 -0.51,-0.08 -0.72,-0.24c-0.21,-0.15 -0.36,-0.37 -0.42,-0.62c-0.07,-0.24 -0.05,-0.5 0.06,-0.74c0.11,-0.23 0.29,-0.42 0.52,-0.54l7.17,-3.73c0.27,-0.12 0.58,-0.14 0.87,-0.05c0.28,0.09 0.52,0.29 0.66,0.54c0.14,0.26 0.18,0.56 0.1,0.84c-0.07,0.28 -0.26,0.52 -0.51,0.68l-7.17,3.73c-0.17,0.09 -0.36,0.13 -0.56,0.13z" fill="#242424" id="svg_70"/>
  <path d="m243.16,91.29c-0.22,-0.01 -0.43,-0.06 -0.62,-0.17c-0.18,-0.11 -0.34,-0.26 -0.44,-0.44c-0.16,-0.27 -0.2,-0.58 -0.11,-0.88c0.08,-0.29 0.29,-0.54 0.57,-0.69l8.28,-4.4c0.28,-0.15 0.61,-0.19 0.92,-0.11c0.31,0.09 0.58,0.28 0.74,0.55c0.16,0.26 0.2,0.58 0.11,0.87c-0.09,0.29 -0.29,0.54 -0.58,0.69l-8.22,4.43c-0.2,0.11 -0.42,0.16 -0.65,0.15l0,0z" fill="#242424" id="svg_71"/>
  <path d="m244.14,97.52c-0.21,-0.01 -0.41,-0.06 -0.6,-0.16c-0.18,-0.1 -0.33,-0.24 -0.44,-0.42c-0.16,-0.26 -0.2,-0.57 -0.12,-0.87c0.08,-0.3 0.28,-0.55 0.55,-0.71l9.06,-5.16c0.28,-0.15 0.6,-0.2 0.91,-0.12c0.31,0.08 0.57,0.27 0.73,0.53c0.16,0.27 0.21,0.58 0.13,0.88c-0.08,0.29 -0.28,0.55 -0.55,0.7l-9.07,5.16c-0.18,0.11 -0.39,0.16 -0.6,0.17l0,0z" fill="#242424" id="svg_72"/>
  <path d="m213.11,84.56c-0.19,0 -0.38,-0.04 -0.55,-0.13l-7.17,-3.73c-0.25,-0.16 -0.44,-0.4 -0.51,-0.68c-0.08,-0.28 -0.04,-0.58 0.1,-0.84c0.14,-0.25 0.38,-0.45 0.66,-0.54c0.29,-0.09 0.6,-0.07 0.87,0.05l7.17,3.73c0.23,0.12 0.41,0.31 0.52,0.54c0.11,0.24 0.13,0.5 0.06,0.74c-0.06,0.25 -0.21,0.47 -0.42,0.62c-0.21,0.16 -0.46,0.24 -0.73,0.24l0,0z" fill="#242424" id="svg_73"/>
  <path d="m211.87,91.29c-0.21,0 -0.41,-0.05 -0.59,-0.14l-8.08,-4.26c-0.27,-0.14 -0.48,-0.39 -0.56,-0.67c-0.09,-0.28 -0.05,-0.59 0.11,-0.84c0.15,-0.26 0.41,-0.45 0.71,-0.53c0.31,-0.08 0.63,-0.04 0.91,0.1l8.08,4.26c0.28,0.15 0.48,0.39 0.56,0.67c0.09,0.29 0.05,0.59 -0.11,0.85c-0.1,0.17 -0.25,0.31 -0.43,0.41c-0.19,0.1 -0.39,0.15 -0.6,0.15l0,0z" fill="#242424" id="svg_74"/>
  <path d="m211.11,97.52c-0.21,-0.01 -0.42,-0.06 -0.61,-0.17l-9.06,-5.16c-0.13,-0.07 -0.25,-0.18 -0.35,-0.3c-0.09,-0.12 -0.16,-0.26 -0.2,-0.4c-0.04,-0.15 -0.05,-0.3 -0.03,-0.45c0.02,-0.15 0.08,-0.3 0.16,-0.43c0.08,-0.13 0.18,-0.24 0.31,-0.33c0.12,-0.1 0.26,-0.16 0.42,-0.2c0.15,-0.04 0.31,-0.05 0.46,-0.03c0.16,0.02 0.31,0.07 0.45,0.15l9.06,5.18c0.27,0.15 0.47,0.41 0.55,0.7c0.08,0.3 0.03,0.61 -0.13,0.88c-0.11,0.17 -0.26,0.31 -0.44,0.41c-0.18,0.09 -0.38,0.15 -0.59,0.15l0,0z" fill="#242424" id="svg_75"/>
  <path clip-rule="evenodd" d="m227.38,36.7c7.77,0 14.07,2.49 14.07,5.56c0,0.11 -0.01,0.21 -0.02,0.32c-0.01,0 0,0.01 0.01,0.01l0,0c0,0 0.01,0 0.01,0.01l0,0.64l0,0.33l0,5.56l0,0.33l0,23.89c0,0 -0.01,0.01 -0.01,0.01l0,0c0,0 -0.01,0 -0.01,0c0.01,0.11 0.02,0.22 0.02,0.32c0,3.8 -6.3,6.88 -14.07,6.88c-7.78,0 -14.08,-3.08 -14.08,-6.88c0,-0.1 0.01,-0.21 0.02,-0.32c0,0 0,0 -0.01,0l0,0c0,0 -0.01,-0.01 -0.01,-0.01l0,-23.89l0,-0.33l0,-5.56l0,-0.33l0,-0.64c0,-0.01 0.01,-0.01 0.01,-0.01l0,0c0.01,0 0.02,-0.01 0.02,-0.01c-0.02,-0.11 -0.03,-0.21 -0.03,-0.32c0,-3.07 6.3,-5.56 14.08,-5.56z" fill="white" fill-rule="evenodd" id="svg_76"/>
  <path d="m241.45,43.24l2,0l0,0l-2,0zm0,0.33l2,0l0,0l-2,0zm0,5.56l-2,0l0,0l2,0zm0,0.33l-2,0l0,0l2,0zm-0.02,23.9l-1.99,0.19l1.99,-0.19zm0,-30.78l1.98,0.27l-1.98,-0.27zm-28.11,30.78l1.99,0.19l-1.99,-0.19zm28.13,-0.01l-2,0l2,0zm0,-30.75l2,0l-2,0zm2,-0.34c0,-1.5 -0.78,-2.73 -1.74,-3.63c-0.96,-0.89 -2.24,-1.6 -3.65,-2.16c-2.83,-1.12 -6.61,-1.77 -10.68,-1.77l0,4c3.69,0 6.95,0.59 9.21,1.49c1.13,0.45 1.92,0.93 2.38,1.37c0.47,0.43 0.48,0.67 0.48,0.7l4,0zm-0.04,0.59c0.02,-0.19 0.04,-0.39 0.04,-0.59l-4,0c0,0.01 0,0.02 -0.01,0.04l3.97,0.55zm-3.96,-0.25l0,0.64l4,0l0,-0.64l-4,0zm0,0.64l0,0.33l4,0l0,-0.33l-4,0zm4,5.89l0,-5.56l-4,0l0,5.56l4,0zm0,0.33l0,-0.33l-4,0l0,0.33l4,0zm0,23.89l0,-23.89l-4,0l0,23.89l4,0zm0,0.33c0,-0.17 -0.01,-0.34 -0.03,-0.5l-3.98,0.37c0,0.04 0.01,0.09 0.01,0.13l4,0zm-16.07,8.88c4.12,0 7.95,-0.82 10.82,-2.22c2.74,-1.34 5.25,-3.57 5.25,-6.66l-4,0c0,0.71 -0.65,1.92 -3,3.07c-2.22,1.08 -5.43,1.81 -9.07,1.81l0,4zm-16.08,-8.88c0,3.09 2.51,5.32 5.25,6.66c2.87,1.4 6.7,2.22 10.83,2.22l0,-4c-3.65,0 -6.86,-0.73 -9.08,-1.81c-2.35,-1.15 -3,-2.36 -3,-3.07l-4,0zm0.03,-0.5c-0.02,0.16 -0.03,0.33 -0.03,0.5l4,0c0,-0.04 0.01,-0.09 0.01,-0.13l-3.98,-0.37zm-0.03,-23.72l0,23.89l4,0l0,-23.89l-4,0zm0,-0.33l0,0.33l4,0l0,-0.33l-4,0zm4,0l0,-5.56l-4,0l0,5.56l4,0zm0,-5.56l0,-0.33l-4,0l0,0.33l4,0zm0,-0.33l0,-0.64l-4,0l0,0.64l4,0zm-4,-0.98c0,0.2 0.02,0.4 0.05,0.59l3.96,-0.55c0,-0.02 -0.01,-0.03 -0.01,-0.04l-4,0zm16.08,-7.56c-4.08,0 -7.86,0.65 -10.69,1.77c-1.41,0.56 -2.69,1.27 -3.65,2.16c-0.96,0.9 -1.74,2.13 -1.74,3.63l4,0c0,-0.03 0.01,-0.27 0.48,-0.7c0.46,-0.44 1.25,-0.92 2.38,-1.37c2.26,-0.9 5.52,-1.49 9.22,-1.49l0,-4zm-14.07,9.89c1.23,0 2.17,-1.09 2,-2.29l-3.96,0.55c-0.17,-1.18 0.75,-2.26 1.96,-2.26l0,4zm28.13,26.77c-1.19,0 -2.11,1.02 -2,2.19l3.98,-0.37c0.11,1.16 -0.8,2.18 -1.98,2.18l0,-4zm-2,-29.06c-0.16,1.2 0.77,2.29 2,2.29l0,-4c1.21,0 2.13,1.08 1.97,2.26l-3.97,-0.55zm-24.13,31.25c0.11,-1.17 -0.81,-2.19 -2,-2.19l0,4c-1.18,0 -2.09,-1.02 -1.98,-2.18l3.98,0.37zm-0.01,-30.95c0,1.1 -0.89,1.99 -1.99,1.99l0,-4c-1.11,0 -2.01,0.9 -2.01,2.01l4,0zm24.15,30.75c0,-1.1 0.89,-1.99 1.99,-1.99l0,4c1.11,0 2.01,-0.9 2.01,-2.01l-4,0zm-26.14,-1.99c1.1,0 1.99,0.89 1.99,1.99l-4,0c0,1.11 0.9,2.01 2.01,2.01l0,-4zm28.13,-26.77c-1.1,0 -1.99,-0.89 -1.99,-1.99l4,0c0,-1.11 -0.9,-2.01 -2.01,-2.01l0,4z" fill="#242424" id="svg_77" mask="url(#path-65-outside-1)"/>
  <path d="m241.45,73.68c0,3.8 -6.3,6.88 -14.07,6.88c-7.78,0 -14.08,-3.08 -14.08,-6.88c0,-3.79 6.3,-6.87 14.08,-6.87c7.77,0 14.07,3.08 14.07,6.87z" fill="#FFD249" id="svg_78"/>
  <path d="m241.45,43.57c0,3.8 -6.3,6.87 -14.07,6.87c-7.78,0 -14.08,-3.07 -14.08,-6.87c0,-3.8 6.3,-6.87 14.08,-6.87c7.77,0 14.07,3.07 14.07,6.87z" fill="#FFD249" id="svg_79"/>
  <path d="m213.3,43.24l28.15,0l0,30.12l-28.15,0l0,-30.12z" fill="#FFD249" id="svg_80"/>
  <ellipse cx="227.38" cy="42.26" fill="#242424" id="svg_81" rx="14.07" ry="5.56"/>
  <ellipse cx="227.38" cy="49.46" fill="#242424" id="svg_82" rx="14.07" ry="5.56"/>
  <rect fill="#242424" height="6.55" id="svg_83" width="28.14" x="213.3" y="42.59"/>
  <g id="svg_84" mask="url(#mask0)">
   <rect fill="white" height="51.71" id="svg_85" opacity="0.4" width="15.71" x="211.34" y="34.08"/>
  </g>
  <ellipse cx="131.49" cy="95.79" id="svg_96" rx="35.49" ry="14.82" stroke="#242424" stroke-width="2"/>
  <path d="m353.23,95.77c0,6.26 -13.02,11.33 -29.07,11.33m-29.07,-11.33c0,-6.25 13.02,-11.32 29.07,-11.32" id="svg_97" stroke="#242424" stroke-linecap="round" stroke-width="2"/>
  <path d="m299.49,44.56c0,5.04 -10.52,9.12 -23.5,9.12m-23.49,-9.12c0,-5.05 10.52,-9.13 23.49,-9.13" id="svg_98" stroke="#242424" stroke-linecap="round" stroke-width="2"/>
  <path d="m203.49,44.56c0,5.04 -10.52,9.12 -23.49,9.12m-23.5,-9.12c0,-5.05 10.52,-9.13 23.5,-9.13" id="svg_99" stroke="#242424" stroke-linecap="round" stroke-width="2"/>
 </g>
</svg>