<svg width="277" height="83" viewBox="0 0 277 83" fill="none" xmlns="http://www.w3.org/2000/svg">
<path d="M-0.000488281 10.5C-0.000488281 4.97715 4.47666 0.5 9.99951 0.5H267C272.522 0.5 277 4.97715 277 10.5V72.5C277 78.0228 272.522 82.5 267 82.5H9.99952C4.47667 82.5 -0.000488281 78.0228 -0.000488281 72.5V10.5Z" fill="#242424"/>
<path d="M139.804 45.0895C134.978 45.0895 131.045 48.7569 131.045 53.8081C131.045 58.8286 134.978 62.5268 139.804 62.5268C144.632 62.5268 148.566 58.8286 148.566 53.8081C148.564 48.7569 144.63 45.0895 139.804 45.0895ZM139.804 59.0951C137.16 59.0951 134.88 56.9159 134.88 53.8102C134.88 50.6716 137.162 48.5253 139.804 48.5253C142.449 48.5253 144.729 50.6716 144.729 53.8102C144.729 56.9139 142.449 59.0951 139.804 59.0951ZM120.693 45.0895C115.868 45.0895 111.934 48.7569 111.934 53.8081C111.934 58.8286 115.868 62.5268 120.693 62.5268C125.521 62.5268 129.455 58.8286 129.455 53.8081C129.455 48.7569 125.521 45.0895 120.693 45.0895ZM120.693 59.0951C118.049 59.0951 115.769 56.9159 115.769 53.8102C115.769 50.6716 118.051 48.5253 120.693 48.5253C123.338 48.5253 125.618 50.6716 125.618 53.8102C125.62 56.9139 123.338 59.0951 120.693 59.0951ZM97.9631 47.7668V51.465H106.823C106.558 53.5457 105.865 55.0648 104.806 56.1205C103.517 57.4079 101.5 58.8286 97.9631 58.8286C92.5092 58.8286 88.2455 54.4354 88.2455 48.9865C88.2455 43.5376 92.5092 39.1445 97.9631 39.1445C100.905 39.1445 103.054 40.3007 104.64 41.7869L107.252 39.1773C105.036 37.0637 102.095 35.4463 97.9631 35.4463C90.4923 35.4463 84.2115 41.5225 84.2115 48.9865C84.2115 56.4506 90.4923 62.5268 97.9631 62.5268C101.995 62.5268 105.038 61.2045 107.416 58.7281C109.862 56.2845 110.623 52.8487 110.623 50.0751C110.623 49.2182 110.557 48.4248 110.424 47.7647H97.9631V47.7668ZM190.928 50.6388C190.202 48.6913 187.986 45.0895 183.458 45.0895C178.962 45.0895 175.226 48.6237 175.226 53.8081C175.226 58.6953 178.929 62.5268 183.886 62.5268C187.885 62.5268 190.2 60.0832 191.16 58.6625L188.185 56.6802C187.194 58.1336 185.838 59.091 183.886 59.091C181.937 59.091 180.548 58.1992 179.655 56.4485L191.324 51.6269L190.928 50.6388ZM179.028 53.5457C178.929 50.1755 181.64 48.4597 183.591 48.4597C185.111 48.4597 186.4 49.2202 186.831 50.3088L179.028 53.5457ZM169.542 61.9999H173.375V36.3729H169.542V61.9999ZM163.259 47.039H163.128C162.268 46.014 160.614 45.0895 158.534 45.0895C154.169 45.0895 150.17 48.9209 150.17 53.843C150.17 58.7302 154.169 62.5288 158.534 62.5288C160.616 62.5288 162.268 61.6043 163.128 60.5485H163.259V61.8031C163.259 65.1385 161.474 66.922 158.599 66.922C156.252 66.922 154.797 65.2389 154.202 63.8183L150.864 65.2061C151.822 67.5165 154.366 70.3578 158.599 70.3578C163.095 70.3578 166.897 67.7153 166.897 61.2742V45.6204H163.261V47.039H163.259ZM158.864 59.0951C156.219 59.0951 154.005 56.8811 154.005 53.843C154.005 50.77 156.219 48.5253 158.864 48.5253C161.474 48.5253 163.524 50.77 163.524 53.843C163.524 56.8811 161.474 59.0951 158.864 59.0951ZM208.89 36.3729H199.716V61.9999H203.543V52.2911H208.888C213.131 52.2911 217.305 49.2223 217.305 44.333C217.305 39.4438 213.133 36.3729 208.89 36.3729ZM208.989 48.7241H203.543V39.9399H208.989C211.851 39.9399 213.476 42.3076 213.476 44.333C213.476 46.3174 211.851 48.7241 208.989 48.7241ZM232.651 45.0444C229.879 45.0444 227.008 46.2641 225.82 48.9681L229.218 50.3846C229.944 48.9681 231.299 48.5048 232.716 48.5048C234.696 48.5048 236.709 49.6917 236.742 51.8012V52.0656C236.049 51.67 234.563 51.0775 232.749 51.0775C229.087 51.0775 225.356 53.0886 225.356 56.8462C225.356 60.2759 228.36 62.4837 231.725 62.4837C234.298 62.4837 235.718 61.3296 236.609 59.9766H236.74V61.9548H240.437V52.1292C240.44 47.5823 237.038 45.0444 232.651 45.0444ZM232.187 59.0889C230.935 59.0889 229.185 58.4616 229.185 56.9118C229.185 54.9336 231.364 54.1751 233.246 54.1751C234.926 54.1751 235.72 54.5379 236.742 55.032C236.445 57.4079 234.399 59.0889 232.187 59.0889ZM253.902 45.604L249.513 56.715H249.381L244.826 45.604H240.702L247.533 61.1328L243.638 69.7715H247.631L258.159 45.604H253.902ZM219.418 61.9999H223.245V36.3729H219.418V61.9999Z" fill="white"/>
<path d="M97.2943 21.498C97.2943 23.2159 96.7854 24.5833 95.7657 25.6042C94.6084 26.8178 93.0983 27.4246 91.2434 27.4246C89.4665 27.4246 87.9543 26.8096 86.7129 25.5796C85.4695 24.3475 84.8478 22.8223 84.8478 21.0019C84.8478 19.1795 85.4695 17.6543 86.7129 16.4243C87.9543 15.1922 89.4665 14.5772 91.2434 14.5772C92.1257 14.5772 92.969 14.7494 93.7692 15.0918C94.5715 15.4362 95.2137 15.8933 95.6939 16.4653L94.6125 17.5477C93.798 16.5739 92.6756 16.0881 91.2413 16.0881C89.9446 16.0881 88.8243 16.5432 87.8784 17.4534C86.9325 18.3636 86.4605 19.5464 86.4605 20.9999C86.4605 22.4533 86.9325 23.6362 87.8784 24.5464C88.8243 25.4566 89.9446 25.9117 91.2413 25.9117C92.6161 25.9117 93.7631 25.4545 94.6803 24.5382C95.2753 23.9416 95.62 23.1114 95.7123 22.0474H91.2413V20.5694H97.2061C97.2676 20.8912 97.2943 21.2008 97.2943 21.498Z" fill="white"/>
<path d="M106.754 16.3609H101.148V20.26H106.204V21.738H101.148V25.6371H106.754V27.15H99.5659V14.85H106.754V16.3609Z" fill="white"/>
<path d="M113.424 27.15H111.842V16.3609H108.403V14.85H116.863V16.3609H113.424V27.15Z" fill="white"/>
<path d="M122.983 27.15V14.85H124.565V27.15H122.983Z" fill="white"/>
<path d="M131.581 27.15H129.999V16.3609H126.56V14.85H135.02V16.3609H131.581V27.15Z" fill="white"/>
<path d="M151.034 25.5612C149.824 26.8035 148.319 27.4247 146.52 27.4247C144.721 27.4247 143.217 26.8035 142.008 25.5612C140.797 24.3189 140.194 22.7978 140.194 21C140.194 19.2021 140.797 17.681 142.008 16.4387C143.217 15.1964 144.721 14.5732 146.52 14.5732C148.309 14.5732 149.811 15.1985 151.026 16.4469C152.241 17.6954 152.848 19.2124 152.848 21C152.848 22.7978 152.243 24.3189 151.034 25.5612ZM143.176 24.5301C144.087 25.4526 145.201 25.9118 146.52 25.9118C147.839 25.9118 148.956 25.4505 149.865 24.5301C150.776 23.6076 151.233 22.4309 151.233 21C151.233 19.5691 150.776 18.3924 149.865 17.4699C148.956 16.5474 147.839 16.0882 146.52 16.0882C145.201 16.0882 144.087 16.5494 143.176 17.4699C142.267 18.3924 141.809 19.5691 141.809 21C141.809 22.4309 142.267 23.6076 143.176 24.5301Z" fill="white"/>
<path d="M155.068 27.15V14.85H156.993L162.976 24.4174H163.044L162.976 22.0476V14.85H164.558V27.15H162.906L156.646 17.1173H156.578L156.646 19.4871V27.15H155.068Z" fill="white"/>
<path d="M97.2943 21.498C97.2943 23.2159 96.7854 24.5833 95.7657 25.6042C94.6084 26.8178 93.0983 27.4246 91.2434 27.4246C89.4665 27.4246 87.9543 26.8096 86.7129 25.5796C85.4695 24.3475 84.8478 22.8223 84.8478 21.0019C84.8478 19.1795 85.4695 17.6543 86.7129 16.4243C87.9543 15.1922 89.4665 14.5772 91.2434 14.5772C92.1257 14.5772 92.969 14.7494 93.7692 15.0918C94.5715 15.4362 95.2137 15.8933 95.6939 16.4653L94.6125 17.5477C93.798 16.5739 92.6756 16.0881 91.2413 16.0881C89.9446 16.0881 88.8243 16.5432 87.8784 17.4534C86.9325 18.3636 86.4605 19.5464 86.4605 20.9999C86.4605 22.4533 86.9325 23.6362 87.8784 24.5464C88.8243 25.4566 89.9446 25.9117 91.2413 25.9117C92.6161 25.9117 93.7631 25.4545 94.6803 24.5382C95.2753 23.9416 95.62 23.1114 95.7123 22.0474H91.2413V20.5694H97.2061C97.2676 20.8912 97.2943 21.2008 97.2943 21.498Z" stroke="white" stroke-width="0.220934" stroke-miterlimit="10"/>
<path d="M106.754 16.3609H101.148V20.26H106.204V21.738H101.148V25.6371H106.754V27.15H99.5659V14.85H106.754V16.3609Z" stroke="white" stroke-width="0.220934" stroke-miterlimit="10"/>
<path d="M113.424 27.15H111.842V16.3609H108.403V14.85H116.863V16.3609H113.424V27.15Z" stroke="white" stroke-width="0.220934" stroke-miterlimit="10"/>
<path d="M122.983 27.15V14.85H124.565V27.15H122.983Z" stroke="white" stroke-width="0.220934" stroke-miterlimit="10"/>
<path d="M131.581 27.15H129.999V16.3609H126.56V14.85H135.02V16.3609H131.581V27.15Z" stroke="white" stroke-width="0.220934" stroke-miterlimit="10"/>
<path d="M151.034 25.5612C149.824 26.8035 148.319 27.4247 146.52 27.4247C144.721 27.4247 143.217 26.8035 142.008 25.5612C140.797 24.3189 140.194 22.7978 140.194 21C140.194 19.2021 140.797 17.681 142.008 16.4387C143.217 15.1964 144.721 14.5732 146.52 14.5732C148.309 14.5732 149.811 15.1985 151.026 16.4469C152.241 17.6954 152.848 19.2124 152.848 21C152.848 22.7978 152.243 24.3189 151.034 25.5612ZM143.176 24.5301C144.087 25.4526 145.201 25.9118 146.52 25.9118C147.839 25.9118 148.956 25.4505 149.865 24.5301C150.776 23.6076 151.233 22.4309 151.233 21C151.233 19.5691 150.776 18.3924 149.865 17.4699C148.956 16.5474 147.839 16.0882 146.52 16.0882C145.201 16.0882 144.087 16.5494 143.176 17.4699C142.267 18.3924 141.809 19.5691 141.809 21C141.809 22.4309 142.267 23.6076 143.176 24.5301Z" stroke="white" stroke-width="0.220934" stroke-miterlimit="10"/>
<path d="M155.068 27.15V14.85H156.993L162.976 24.4174H163.044L162.976 22.0476V14.85H164.558V27.15H162.906L156.646 17.1173H156.578L156.646 19.4871V27.15H155.068Z" stroke="white" stroke-width="0.220934" stroke-miterlimit="10"/>
<g filter="url(#filter0_ii_51_177)">
<path d="M21.4124 15.9529C20.8153 16.5843 20.4624 17.5642 20.4624 18.8331V64.1709C20.4624 65.4419 20.8153 66.4198 21.4124 67.0512L21.5642 67.1988L46.9846 41.8013V41.502V41.2027L21.5642 15.8032L21.4124 15.9529Z" fill="url(#paint0_linear_51_177)"/>
<path d="M55.4568 50.2695L46.9847 41.8009V41.5016V41.2023L55.4589 32.7358L55.6497 32.8445L65.6894 38.5435C68.5559 40.1712 68.5559 42.8341 65.6894 44.4639L55.6497 50.1629L55.4568 50.2695Z" fill="url(#paint1_linear_51_177)"/>
<g filter="url(#filter1_i_51_177)">
<path d="M55.6494 50.1612L46.9824 41.502L21.4122 67.0511C22.3561 68.0515 23.9175 68.1745 25.676 67.1782L55.6494 50.1612Z" fill="url(#paint2_linear_51_177)"/>
</g>
<path d="M55.6494 32.8426L25.676 15.8276C23.9175 14.8293 22.3561 14.9543 21.4122 15.9547L46.9845 41.5039L55.6494 32.8426Z" fill="url(#paint3_linear_51_177)"/>
</g>
<path d="M9.99951 1.5H267V-0.5H9.99951V1.5ZM276 10.5V72.5H278V10.5H276ZM267 81.5H9.99952V83.5H267V81.5ZM0.999512 72.5V10.5H-1.00049V72.5H0.999512ZM9.99952 81.5C5.02895 81.5 0.999512 77.4706 0.999512 72.5H-1.00049C-1.00049 78.5751 3.92439 83.5 9.99952 83.5V81.5ZM276 72.5C276 77.4706 271.97 81.5 267 81.5V83.5C273.075 83.5 278 78.5751 278 72.5H276ZM267 1.5C271.97 1.5 276 5.52944 276 10.5H278C278 4.42487 273.075 -0.5 267 -0.5V1.5ZM9.99951 -0.5C3.92438 -0.5 -1.00049 4.42487 -1.00049 10.5H0.999512C0.999512 5.52944 5.02895 1.5 9.99951 1.5V-0.5Z" fill="white"/>
<defs>
<filter id="filter0_ii_51_177" x="20.4624" y="15.1387" width="47.3768" height="52.7275" filterUnits="userSpaceOnUse" color-interpolation-filters="sRGB">
<feFlood flood-opacity="0" result="BackgroundImageFix"/>
<feBlend mode="normal" in="SourceGraphic" in2="BackgroundImageFix" result="shape"/>
<feColorMatrix in="SourceAlpha" type="matrix" values="0 0 0 0 0 0 0 0 0 0 0 0 0 0 0 0 0 0 127 0" result="hardAlpha"/>
<feOffset dy="-0.165701"/>
<feComposite in2="hardAlpha" operator="arithmetic" k2="-1" k3="1"/>
<feColorMatrix type="matrix" values="0 0 0 0 0 0 0 0 0 0 0 0 0 0 0 0 0 0 0.12 0"/>
<feBlend mode="normal" in2="shape" result="effect1_innerShadow_51_177"/>
<feColorMatrix in="SourceAlpha" type="matrix" values="0 0 0 0 0 0 0 0 0 0 0 0 0 0 0 0 0 0 127 0" result="hardAlpha"/>
<feOffset dy="0.165701"/>
<feComposite in2="hardAlpha" operator="arithmetic" k2="-1" k3="1"/>
<feColorMatrix type="matrix" values="0 0 0 0 1 0 0 0 0 1 0 0 0 0 1 0 0 0 0.25 0"/>
<feBlend mode="normal" in2="effect1_innerShadow_51_177" result="effect2_innerShadow_51_177"/>
</filter>
<filter id="filter1_i_51_177" x="21.4122" y="41.502" width="34.2372" height="26.3643" filterUnits="userSpaceOnUse" color-interpolation-filters="sRGB">
<feFlood flood-opacity="0" result="BackgroundImageFix"/>
<feBlend mode="normal" in="SourceGraphic" in2="BackgroundImageFix" result="shape"/>
<feColorMatrix in="SourceAlpha" type="matrix" values="0 0 0 0 0 0 0 0 0 0 0 0 0 0 0 0 0 0 127 0" result="hardAlpha"/>
<feOffset dy="-0.165701"/>
<feComposite in2="hardAlpha" operator="arithmetic" k2="-1" k3="1"/>
<feColorMatrix type="matrix" values="0 0 0 0 0 0 0 0 0 0 0 0 0 0 0 0 0 0 0.08 0"/>
<feBlend mode="normal" in2="shape" result="effect1_innerShadow_51_177"/>
</filter>
<linearGradient id="paint0_linear_51_177" x1="44.7313" y1="18.3534" x2="10.3282" y2="52.7876" gradientUnits="userSpaceOnUse">
<stop stop-color="#00A0FF"/>
<stop offset="0.0066" stop-color="#00A1FF"/>
<stop offset="0.2601" stop-color="#00BEFF"/>
<stop offset="0.5122" stop-color="#00D2FF"/>
<stop offset="0.7604" stop-color="#00DFFF"/>
<stop offset="1" stop-color="#00E3FF"/>
</linearGradient>
<linearGradient id="paint1_linear_51_177" x1="69.4207" y1="41.5016" x2="19.7743" y2="41.5016" gradientUnits="userSpaceOnUse">
<stop stop-color="#FFE000"/>
<stop offset="0.4087" stop-color="#FFBD00"/>
<stop offset="0.7754" stop-color="#FFA500"/>
<stop offset="1" stop-color="#FF9C00"/>
</linearGradient>
<linearGradient id="paint2_linear_51_177" x1="50.9427" y1="46.2044" x2="4.28778" y2="92.9015" gradientUnits="userSpaceOnUse">
<stop stop-color="#FF3A44"/>
<stop offset="1" stop-color="#C31162"/>
</linearGradient>
<linearGradient id="paint3_linear_51_177" x1="14.9723" y1="0.862216" x2="35.805" y2="21.7137" gradientUnits="userSpaceOnUse">
<stop stop-color="#32A071"/>
<stop offset="0.0685" stop-color="#2DA771"/>
<stop offset="0.4762" stop-color="#15CF74"/>
<stop offset="0.8009" stop-color="#06E775"/>
<stop offset="1" stop-color="#00F076"/>
</linearGradient>
</defs>
</svg>
