<?xml version="1.0"?>
<svg width="450" height="259" xmlns="http://www.w3.org/2000/svg" xmlns:svg="http://www.w3.org/2000/svg">
 <mask height="179" id="path-2-outside-1" maskUnits="userSpaceOnUse" width="265" x="93" y="33">
  <rect fill="white" height="179" id="svg_1" width="265" x="93" y="33"/>
  <path clip-rule="evenodd" d="m270.87,209.89c-5.01,0.03 -9.27,-1.34 -13.14,-4.07c-11.29,-7.95 -22.61,-15.85 -33.93,-23.76c-40.47,-28.34 -80.94,-56.67 -121.41,-85c-0.81,-0.57 -1.65,-1.09 -2.4,-1.72c-0.9,-0.74 -1.81,-1.5 -2.55,-2.38c-3.05,-3.68 -3.24,-8.51 -0.57,-12.49c1.23,-1.82 2.86,-3.19 4.76,-4.28c3.03,-1.74 6.05,-3.49 9.09,-5.23c18.89,-10.84 37.79,-21.66 56.68,-32.52c2.59,-1.48 5.23,-2.71 8.22,-3.16c5.38,-0.82 10.31,0.17 14.89,3.13c14.76,9.54 29.55,19.03 44.33,28.53c37.17,23.92 74.34,47.83 111.5,71.75c1.21,0.78 2.44,1.53 3.58,2.39c2.42,1.83 4.22,4.13 4.98,7.13c1.11,4.33 -0.2,7.97 -3.29,11.02c-0.95,0.93 -2.08,1.7 -3.19,2.45c-18.86,12.78 -37.72,25.53 -56.58,38.3c-3.12,2.11 -6.25,4.2 -9.35,6.33c-3.6,2.47 -7.57,3.62 -11.62,3.58" fill-rule="evenodd" id="svg_2"/>
 </mask>
 <mask height="163" id="mask0" maskUnits="userSpaceOnUse" width="249" x="102" y="39">
  <path clip-rule="evenodd" d="m162.19,48.09c0.74,-0.55 1.2,-0.96 1.72,-1.26c2.95,-1.72 5.87,-3.48 8.88,-5.09c5.44,-2.91 10.84,-2.85 16.08,0.53c15.17,9.77 30.34,19.55 45.51,29.33c36.75,23.7 73.5,47.39 110.25,71.09c0.68,0.44 1.37,0.86 2.01,1.35c0.64,0.49 1.29,1 1.81,1.6c2.32,2.63 2.13,5.76 -0.5,8.09c-0.66,0.59 -1.42,1.1 -2.16,1.6c-21.55,14.46 -43.11,28.9 -64.64,43.39c-2.85,1.91 -5.87,3.03 -9.33,2.97c-3.23,-0.06 -6.18,-0.95 -8.84,-2.81c-3.98,-2.77 -7.97,-5.53 -11.95,-8.29c-47.51,-32.98 -95.01,-65.95 -142.52,-98.93c-0.88,-0.62 -1.77,-1.23 -2.64,-1.87c-0.43,-0.31 -0.87,-0.63 -1.26,-1c-2.35,-2.24 -2.44,-5.03 -0.16,-7.36c0.62,-0.63 1.36,-1.18 2.13,-1.63c3.32,-1.96 6.68,-3.86 10.01,-5.81c1.1,-0.64 2.11,-0.77 3.29,-0.12c3.4,1.87 6.72,1.39 9.98,-0.49c7.69,-4.46 15.39,-8.89 23.09,-13.33c2.88,-1.66 5.77,-3.3 8.62,-5c0.84,-0.5 1.66,-1.09 2.35,-1.78c0.97,-0.98 0.97,-2.07 0.13,-3.16c-0.49,-0.63 -1.07,-1.18 -1.86,-2.02" fill="white" fill-rule="evenodd" id="svg_3"/>
 </mask>
 <defs>
  <filter color-interpolation-filters="sRGB" filterUnits="userSpaceOnUse" height="51.96" id="filter0_d" width="51.84" x="65.94" y="47">
   <feFlood flood-opacity="0" result="BackgroundImageFix"/>
   <feColorMatrix in="SourceAlpha" result="hardAlpha" type="matrix" values="0 0 0 0 0 0 0 0 0 0 0 0 0 0 0 0 0 0 127 0"/>
   <feOffset dx="-2.06" dy="2.06"/>
   <feComposite in2="hardAlpha" operator="out"/>
   <feColorMatrix type="matrix" values="0 0 0 0 0 0 0 0 0 0 0 0 0 0 0 0 0 0 0.1 0"/>
   <feBlend in2="BackgroundImageFix"/>
   <feBlend in="SourceGraphic" in2="effect1_dropShadow"/>
  </filter>
  <filter color-interpolation-filters="sRGB" filterUnits="userSpaceOnUse" height="54.55" id="filter1_d" width="51.66" x="330.94" y="124">
   <feFlood flood-opacity="0" result="BackgroundImageFix"/>
   <feColorMatrix in="SourceAlpha" result="hardAlpha" type="matrix" values="0 0 0 0 0 0 0 0 0 0 0 0 0 0 0 0 0 0 127 0"/>
   <feOffset dx="-2.06" dy="2.06"/>
   <feComposite in2="hardAlpha" operator="out"/>
   <feColorMatrix type="matrix" values="0 0 0 0 0 0 0 0 0 0 0 0 0 0 0 0 0 0 0.1 0"/>
   <feBlend in2="BackgroundImageFix"/>
   <feBlend in="SourceGraphic" in2="effect1_dropShadow"/>
  </filter>
  <filter color-interpolation-filters="sRGB" filterUnits="userSpaceOnUse" height="28.49" id="filter2_ii" width="25.6" x="345" y="136">
   <feFlood flood-opacity="0" result="BackgroundImageFix"/>
   <feBlend in="SourceGraphic" in2="BackgroundImageFix"/>
   <feColorMatrix in="SourceAlpha" result="hardAlpha" type="matrix" values="0 0 0 0 0 0 0 0 0 0 0 0 0 0 0 0 0 0 127 0"/>
   <feOffset dy="-0.09"/>
   <feComposite in2="hardAlpha" operator="arithmetic"/>
   <feColorMatrix type="matrix" values="0 0 0 0 0 0 0 0 0 0 0 0 0 0 0 0 0 0 0.12 0"/>
   <feBlend in2="shape"/>
   <feColorMatrix in="SourceAlpha" result="hardAlpha" type="matrix" values="0 0 0 0 0 0 0 0 0 0 0 0 0 0 0 0 0 0 127 0"/>
   <feOffset dy="0.09"/>
   <feComposite in2="hardAlpha" operator="arithmetic"/>
   <feColorMatrix type="matrix" values="0 0 0 0 1 0 0 0 0 1 0 0 0 0 1 0 0 0 0.25 0"/>
   <feBlend in2="effect1_innerShadow"/>
  </filter>
  <filter color-interpolation-filters="sRGB" filterUnits="userSpaceOnUse" height="14.24" id="filter3_i" width="18.5" x="345.51" y="150.24">
   <feFlood flood-opacity="0" result="BackgroundImageFix"/>
   <feBlend in="SourceGraphic" in2="BackgroundImageFix"/>
   <feColorMatrix in="SourceAlpha" result="hardAlpha" type="matrix" values="0 0 0 0 0 0 0 0 0 0 0 0 0 0 0 0 0 0 127 0"/>
   <feOffset dy="-0.09"/>
   <feComposite in2="hardAlpha" operator="arithmetic"/>
   <feColorMatrix type="matrix" values="0 0 0 0 0 0 0 0 0 0 0 0 0 0 0 0 0 0 0.08 0"/>
   <feBlend in2="shape"/>
  </filter>
  <linearGradient id="paint0_linear" x1="0.92" x2="-0.38" y1="0.05" y2="0.72">
   <stop stop-color="#00A0FF"/>
   <stop offset="0.01" stop-color="#00A1FF"/>
   <stop offset="0.26" stop-color="#00BEFF"/>
   <stop offset="0.51" stop-color="#00D2FF"/>
   <stop offset="0.76" stop-color="#00DFFF"/>
   <stop offset="1" stop-color="#00E3FF"/>
  </linearGradient>
  <linearGradient id="paint1_linear" x1="1.08" x2="-1.31" y1="0.5" y2="0.5">
   <stop stop-color="#FFE000"/>
   <stop offset="0.41" stop-color="#FFBD00"/>
   <stop offset="0.78" stop-color="#FFA500"/>
   <stop offset="1" stop-color="#FF9C00"/>
  </linearGradient>
  <linearGradient id="paint2_linear" x1="0.86" x2="-0.5" y1="0.18" y2="1.95">
   <stop stop-color="#FF3A44"/>
   <stop offset="1" stop-color="#C31162"/>
  </linearGradient>
  <linearGradient id="paint3_linear" x1="-0.19" x2="0.42" y1="-0.54" y2="0.25">
   <stop stop-color="#32A071"/>
   <stop offset="0.07" stop-color="#2DA771"/>
   <stop offset="0.48" stop-color="#15CF74"/>
   <stop offset="0.8" stop-color="#06E775"/>
   <stop offset="1" stop-color="#00F076"/>
  </linearGradient>
 </defs>
 <g class="layer">
  <title>Layer 1</title>
  <rect fill="white" height="259" id="svg_4" width="450"/>
  <path clip-rule="evenodd" d="m269.87,225.24c-5.01,0.03 -9.27,-1.34 -13.14,-4.07c-11.29,-7.95 -22.61,-15.85 -33.93,-23.76c-40.47,-28.34 -80.94,-56.67 -121.41,-85c-0.81,-0.57 -1.65,-1.09 -2.4,-1.72c-0.9,-0.74 -1.81,-1.5 -2.55,-2.38c-3.05,-3.68 -3.24,-8.51 -0.57,-12.49c1.23,-1.82 2.86,-3.19 4.76,-4.28c3.03,-1.74 6.05,-3.49 9.09,-5.23c18.89,-10.84 37.79,-21.67 56.68,-32.52c2.59,-1.48 5.23,-2.71 8.22,-3.17c5.38,-0.81 10.31,0.18 14.89,3.14c14.76,9.53 29.55,19.02 44.33,28.53c37.17,23.92 74.34,47.83 111.5,71.75c1.21,0.77 2.44,1.53 3.58,2.39c2.42,1.83 4.22,4.13 4.98,7.13c1.11,4.33 -0.2,7.97 -3.29,11.02c-0.95,0.93 -2.08,1.7 -3.19,2.45c-18.86,12.77 -37.72,25.53 -56.58,38.29c-3.12,2.12 -6.25,4.21 -9.35,6.34c-3.6,2.47 -7.57,3.62 -11.62,3.58" fill="#E6E6E6" fill-rule="evenodd" id="svg_5" opacity="0.7"/>
  <path clip-rule="evenodd" d="m270.87,209.89c-5.01,0.03 -9.27,-1.34 -13.14,-4.07c-11.29,-7.95 -22.61,-15.85 -33.93,-23.76c-40.47,-28.34 -80.94,-56.67 -121.41,-85c-0.81,-0.57 -1.65,-1.09 -2.4,-1.72c-0.9,-0.74 -1.81,-1.5 -2.55,-2.38c-3.05,-3.68 -3.24,-8.51 -0.57,-12.49c1.23,-1.82 2.86,-3.19 4.76,-4.28c3.03,-1.74 6.05,-3.49 9.09,-5.23c18.89,-10.84 37.79,-21.66 56.68,-32.52c2.59,-1.48 5.23,-2.71 8.22,-3.16c5.38,-0.82 10.31,0.17 14.89,3.13c14.76,9.54 29.55,19.03 44.33,28.53c37.17,23.92 74.34,47.83 111.5,71.75c1.21,0.78 2.44,1.53 3.58,2.39c2.42,1.83 4.22,4.13 4.98,7.13c1.11,4.33 -0.2,7.97 -3.29,11.02c-0.95,0.93 -2.08,1.7 -3.19,2.45c-18.86,12.78 -37.72,25.53 -56.58,38.3c-3.12,2.11 -6.25,4.2 -9.35,6.33c-3.6,2.47 -7.57,3.62 -11.62,3.58" fill="white" fill-rule="evenodd" id="svg_6"/>
  <path d="m257.73,205.82l1.15,-1.63l0,0l-1.15,1.63zm-33.93,-23.76l1.15,-1.64l0,0l-1.15,1.64zm-121.41,-85l1.15,-1.64l0,0l-1.15,1.64zm-2.4,-1.72l-1.28,1.54l0,0l1.28,-1.54zm-2.55,-2.38l1.54,-1.28l0,0l-1.54,1.28zm-0.57,-12.49l1.66,1.12l0,0l-1.66,-1.12zm4.76,-4.28l0.99,1.73l0,0l-0.99,-1.73zm9.09,-5.23l0.99,1.73l0,0l-0.99,-1.73zm56.68,-32.52l1,1.74l0,0l-1,-1.74zm8.22,-3.16l-0.3,-1.98l0,0l0.3,1.98zm14.89,3.13l1.09,-1.68l0,0l-1.09,1.68zm44.33,28.53l1.08,-1.68l0,0l-1.08,1.68zm111.5,71.75l-1.08,1.68l0,0l1.08,-1.68zm3.58,2.39l-1.21,1.6l0,0l1.21,-1.6zm4.98,7.13l1.94,-0.49l0,0l-1.94,0.49zm-3.29,11.02l1.4,1.43l0,0l-1.4,-1.43zm-3.19,2.45l-1.13,-1.65l0,0l1.13,1.65zm-56.58,38.3l1.12,1.65l0,0l-1.12,-1.65zm-9.35,6.33l-1.13,-1.65l0,0l1.13,1.65zm-11.63,1.58c-4.6,0.03 -8.45,-1.22 -11.98,-3.7l-2.3,3.27c4.21,2.96 8.87,4.47 14.31,4.43l-0.03,-4zm-11.98,-3.7c-11.29,-7.95 -22.62,-15.86 -33.93,-23.77l-2.29,3.27c11.31,7.93 22.63,15.82 33.92,23.77l2.3,-3.27zm-33.93,-23.77c-40.47,-28.33 -80.94,-56.67 -121.41,-85l-2.29,3.28c40.47,28.33 80.94,56.66 121.41,84.99l2.29,-3.27zm-121.41,-85c-0.93,-0.65 -1.6,-1.06 -2.28,-1.62l-2.55,3.08c0.84,0.7 1.85,1.34 2.54,1.82l2.29,-3.28zm-2.28,-1.62c-0.92,-0.76 -1.68,-1.4 -2.28,-2.12l-3.07,2.55c0.87,1.06 1.93,1.93 2.8,2.65l2.55,-3.08zm-2.28,-2.12c-2.47,-2.98 -2.64,-6.83 -0.45,-10.09l-3.31,-2.23c-3.16,4.69 -2.95,10.5 0.69,14.87l3.07,-2.55zm-0.45,-10.09c1.03,-1.52 2.4,-2.7 4.09,-3.67l-1.99,-3.46c-2.1,1.2 -3.98,2.77 -5.41,4.9l3.31,2.23zm4.09,-3.67c3.04,-1.74 6.05,-3.49 9.09,-5.23l-1.99,-3.47c-3.03,1.74 -6.07,3.5 -9.09,5.24l1.99,3.46zm9.09,-5.23c18.89,-10.83 37.8,-21.66 56.69,-32.51l-2,-3.47c-18.88,10.85 -37.78,21.68 -56.68,32.51l1.99,3.47zm56.69,-32.51c2.5,-1.44 4.88,-2.53 7.52,-2.93l-0.6,-3.95c-3.35,0.51 -6.25,1.88 -8.92,3.41l2,3.47zm7.52,-2.93c4.91,-0.74 9.34,0.15 13.51,2.84l2.17,-3.36c-5.01,-3.24 -10.44,-4.32 -16.28,-3.43l0.6,3.95zm13.51,2.84c14.76,9.54 29.55,19.03 44.32,28.54l2.17,-3.37c-14.78,-9.51 -29.57,-19 -44.32,-28.53l-2.17,3.36zm44.32,28.54c37.17,23.91 74.34,47.82 111.51,71.74l2.17,-3.36c-37.17,-23.92 -74.34,-47.83 -111.51,-71.75l-2.17,3.37zm111.51,71.74c1.26,0.81 2.39,1.5 3.45,2.31l2.42,-3.19c-1.23,-0.93 -2.55,-1.74 -3.7,-2.48l-2.17,3.36zm3.45,2.31c2.15,1.62 3.63,3.56 4.26,6.03l3.87,-0.99c-0.9,-3.54 -3.02,-6.19 -5.71,-8.23l-2.42,3.19zm4.26,6.03c0.9,3.54 -0.1,6.47 -2.77,9.1l2.81,2.85c3.53,-3.48 5.14,-7.82 3.83,-12.94l-3.87,0.99zm-2.77,9.1c-0.79,0.78 -1.76,1.44 -2.91,2.22l2.25,3.31c1.08,-0.73 2.37,-1.6 3.47,-2.68l-2.81,-2.85zm-2.91,2.22c-18.85,12.77 -37.71,25.53 -56.57,38.29l2.24,3.31c18.86,-12.76 37.72,-25.52 56.58,-38.29l-2.25,-3.31zm-56.57,38.29c-3.11,2.1 -6.25,4.21 -9.36,6.34l2.26,3.3c3.1,-2.12 6.21,-4.21 9.34,-6.33l-2.24,-3.31zm-9.36,6.34c-3.26,2.24 -6.83,3.27 -10.47,3.23l-0.04,4c4.46,0.05 8.83,-1.23 12.77,-3.93l-2.26,-3.3z" fill="#242424" id="svg_7" mask="url(#path-2-outside-1)"/>
  <g id="svg_8" mask="url(#mask0)">
   <path clip-rule="evenodd" d="m96.15,85.64l83.87,-48.23l175.27,112.73l-84.48,57.08l-174.66,-121.58z" fill="#FFD249" fill-rule="evenodd" id="svg_9"/>
  </g>
  <g filter="url(#filter0_d)" id="svg_20">
   <rect fill="white" height="49.9" id="svg_21" rx="6.87" width="49.78" x="68" y="47"/>
   <path d="m104.98,67.66l0.62,-0.38l-0.42,-0.6c-1.4,-1.99 -3.73,-3.24 -6.16,-3.33c-1.35,-0.13 -2.63,0.27 -3.67,0.66c-0.25,0.1 -0.48,0.19 -0.69,0.27c-0.25,0.1 -0.47,0.19 -0.71,0.27c-0.42,0.15 -0.69,0.22 -0.86,0.22c-0.19,0 -0.45,-0.06 -0.81,-0.18c-0.26,-0.09 -0.54,-0.2 -0.84,-0.32c-0.11,-0.05 -0.23,-0.1 -0.36,-0.15c-0.87,-0.34 -1.95,-0.73 -3.11,-0.7l0,0l0,0c-2.86,0.09 -5.51,1.7 -6.9,4.19c-1.48,2.54 -1.64,5.63 -1.13,8.52c0.51,2.9 1.72,5.68 3.08,7.66l0,0l0.01,0.01c0.65,0.92 1.39,1.97 2.25,2.77c0.86,0.8 1.91,1.44 3.18,1.4l0,0c1.04,-0.05 1.79,-0.36 2.45,-0.64c0.06,-0.02 0.11,-0.05 0.17,-0.07c0.69,-0.29 1.36,-0.54 2.41,-0.54c1.03,0 1.69,0.27 2.39,0.56c0.02,0.01 0.04,0.02 0.06,0.03c0.71,0.3 1.5,0.64 2.65,0.61c1.27,-0.02 2.28,-0.6 3.11,-1.37c0.82,-0.76 1.51,-1.75 2.13,-2.69c0.98,-1.38 1.74,-2.92 2.24,-4.54l0.18,-0.59l-0.57,-0.24c-2.22,-0.94 -3.7,-3.17 -3.71,-5.56c0.03,-2.13 1.18,-4.15 3.01,-5.27zm-5.3,-11.1l-0.05,-0.7l-0.7,0.07c-1.93,0.21 -3.7,1.12 -4.98,2.57c-1.26,1.43 -1.91,3.34 -1.79,5.23l0.04,0.64l0.64,0c1.96,0.02 3.88,-0.88 5.11,-2.4c1.26,-1.51 1.89,-3.45 1.73,-5.41z" fill="white" id="svg_22" stroke="#242424" stroke-width="1.37"/>
   <rect height="47.9" id="svg_23" rx="5.87" stroke="#242424" stroke-width="2" width="47.78" x="69" y="48"/>
  </g>
  <g filter="url(#filter1_d)" id="svg_24">
   <rect fill="white" height="52.49" id="svg_25" rx="6.87" width="49.6" x="333" y="124"/>
   <path d="m369.7,148.18l-5.4,-3.07c-0.01,-0.01 -0.02,-0.01 -0.02,-0.02l-16.2,-9.19c0,0 0,0 0,0c-1,-0.57 -2.06,-0.62 -2.81,0.03c-0.02,0.01 -0.04,0.03 -0.05,0.04l-0.03,0.03c-0.01,0.01 -0.03,0.03 -0.04,0.04l-0.02,0.02c0,0 0,0 -0.01,0.01c-0.44,0.47 -0.66,1.15 -0.66,1.93l0,24.49c0,0.78 0.22,1.46 0.66,1.93c0,0 0.01,0 0.01,0.01c0.74,0.77 1.88,0.76 2.95,0.16l0,0l16.1,-9.15l0.09,-0.04l0,0l0.01,-0.01l5.42,-3.08l0,0c0.87,-0.49 1.44,-1.22 1.44,-2.07c0,-0.84 -0.57,-1.57 -1.44,-2.06l0,0z" fill="white" id="svg_26" stroke="#242424" stroke-linejoin="round" stroke-width="1.08"/>
   <g filter="url(#filter2_ii)" id="svg_27">
    <path d="m345.51,136.44c-0.32,0.34 -0.51,0.87 -0.51,1.56l0,24.49c0,0.69 0.19,1.22 0.51,1.56l0.09,0.08l13.73,-13.72l0,-0.17l0,-0.16l-13.73,-13.72l-0.09,0.08z" fill="url(#paint0_linear)" id="svg_28"/>
    <path d="m363.91,154.98l-4.58,-4.58l0,-0.16l0,-0.16l4.58,-4.57l0.1,0.06l5.42,3.07c1.55,0.88 1.55,2.32 0,3.2l-5.42,3.08l-0.1,0.06z" fill="url(#paint1_linear)" id="svg_29"/>
    <g filter="url(#filter3_i)" id="svg_30">
     <path d="m364.01,154.92l-4.68,-4.68l-13.82,13.81c0.51,0.54 1.36,0.6 2.31,0.07l16.19,-9.2z" fill="url(#paint2_linear)" id="svg_31"/>
    </g>
    <path d="m364.01,145.56l-16.19,-9.19c-0.95,-0.54 -1.8,-0.47 -2.31,0.07l13.82,13.8l4.68,-4.68z" fill="url(#paint3_linear)" id="svg_32"/>
   </g>
   <rect height="50.49" id="svg_33" rx="5.87" stroke="#242424" stroke-width="2" width="47.6" x="334" y="125"/>
  </g>
 </g>
</svg>