<svg width="247" height="83" viewBox="0 0 247 83" fill="none" xmlns="http://www.w3.org/2000/svg">
<path d="M-0.000488281 15.5C-0.000488281 10.8406 -0.000488281 8.51088 0.760716 6.67317C1.77566 4.22288 3.7224 2.27614 6.17268 1.2612C8.01039 0.5 10.3401 0.5 14.9995 0.5H232C236.659 0.5 238.989 0.5 240.826 1.2612C243.277 2.27614 245.223 4.22288 246.238 6.67317C247 8.51088 247 10.8406 247 15.5V67.5C247 72.1594 247 74.4891 246.238 76.3268C245.223 78.7771 243.277 80.7239 240.826 81.7388C238.989 82.5 236.659 82.5 232 82.5H14.9995C10.3401 82.5 8.01039 82.5 6.17268 81.7388C3.7224 80.7239 1.77566 78.7771 0.760716 76.3268C-0.000488281 74.4891 -0.000488281 72.1594 -0.000488281 67.5V15.5Z" fill="#242424"/>
<path d="M167.807 39.8622V44.5588H164.851V47.6388H167.807V58.104C167.807 61.6775 169.43 63.1069 173.514 63.1069C174.231 63.1069 174.915 63.0218 175.513 62.9197V59.8738C175 59.9248 174.676 59.9588 174.112 59.9588C172.284 59.9588 171.481 59.108 171.481 57.1681V47.6388H175.513V44.5588H171.481V39.8622H167.807Z" fill="white"/>
<path d="M185.915 63.3622C191.349 63.3622 194.68 59.7376 194.68 53.7308C194.68 47.7579 191.331 44.1164 185.915 44.1164C180.482 44.1164 177.133 47.7579 177.133 53.7308C177.133 59.7376 180.465 63.3622 185.915 63.3622ZM185.915 60.112C182.72 60.112 180.926 57.7807 180.926 53.7308C180.926 49.7148 182.72 47.3665 185.915 47.3665C189.093 47.3665 190.904 49.7148 190.904 53.7308C190.904 57.7637 189.093 60.112 185.915 60.112Z" fill="white"/>
<path d="M197.531 63.0048H201.204V52.0631C201.204 49.4596 203.169 47.7069 205.954 47.7069C206.603 47.7069 207.697 47.826 208.004 47.9281V44.3206C207.611 44.2185 206.911 44.1674 206.364 44.1674C203.938 44.1674 201.871 45.4947 201.341 47.3155H201.068V44.4737H197.531V63.0048Z" fill="white"/>
<path d="M217.126 47.2304C219.842 47.2304 221.619 49.1193 221.705 52.0291H212.307C212.512 49.1363 214.409 47.2304 217.126 47.2304ZM221.687 58.0019C221.004 59.4483 219.483 60.2481 217.262 60.2481C214.323 60.2481 212.427 58.1891 212.307 54.9389V54.7347H225.446V53.4585C225.446 47.6388 222.32 44.1164 217.143 44.1164C211.897 44.1164 208.566 47.877 208.566 53.7988C208.566 59.7206 211.829 63.3622 217.16 63.3622C221.414 63.3622 224.387 61.3202 225.224 58.0019H221.687Z" fill="white"/>
<path d="M143.717 56.1616C144.001 60.712 147.808 63.6221 153.475 63.6221C159.531 63.6221 163.321 60.5709 163.321 55.703C163.321 51.8757 161.16 49.7593 155.919 48.5423L153.103 47.8544C149.774 47.0784 148.428 46.0378 148.428 44.2212C148.428 41.9283 150.517 40.4292 153.652 40.4292C156.627 40.4292 158.681 41.8931 159.053 44.2388H162.914C162.683 39.953 158.894 36.937 153.705 36.937C148.127 36.937 144.408 39.953 144.408 44.4857C144.408 48.2248 146.515 50.4471 151.137 51.523L154.431 52.3167C157.814 53.1103 159.301 54.2744 159.301 56.2145C159.301 58.472 156.963 60.1123 153.776 60.1123C150.358 60.1123 147.985 58.5779 147.649 56.1616H143.717Z" fill="white"/>
<path d="M105.664 44.1674C103.135 44.1674 100.948 45.4267 99.8208 47.5367H99.5474V44.4737H96.0107V69.1648H99.6841V60.1971H99.9746C100.948 62.154 103.05 63.3111 105.698 63.3111C110.397 63.3111 113.387 59.6185 113.387 53.7308C113.387 47.843 110.397 44.1674 105.664 44.1674ZM104.622 60.0269C101.546 60.0269 99.6158 57.6105 99.6158 53.7478C99.6158 49.868 101.546 47.4516 104.639 47.4516C107.749 47.4516 109.611 49.8169 109.611 53.7308C109.611 57.6616 107.749 60.0269 104.622 60.0269Z" fill="white"/>
<path d="M126.241 44.1674C123.712 44.1674 121.525 45.4267 120.398 47.5367H120.124V44.4737H116.587V69.1648H120.261V60.1971H120.551C121.525 62.154 123.627 63.3111 126.275 63.3111C130.974 63.3111 133.964 59.6185 133.964 53.7308C133.964 47.843 130.974 44.1674 126.241 44.1674ZM125.199 60.0269C122.123 60.0269 120.192 57.6105 120.192 53.7478C120.192 49.868 122.123 47.4516 125.216 47.4516C128.325 47.4516 130.188 49.8169 130.188 53.7308C130.188 57.6616 128.325 60.0269 125.199 60.0269Z" fill="white"/>
<path d="M89.4199 63.0048H93.6346L84.4082 37.5543H80.1404L70.9141 63.0048H74.9871L77.3424 56.2498H87.0823L89.4199 63.0048ZM82.0707 42.1753H82.3717L86.0729 52.934H78.3518L82.0707 42.1753Z" fill="white"/>
<path d="M73.3815 18.3575V30.635H77.8323C81.5058 30.635 83.6329 28.3803 83.6329 24.458C83.6329 20.5952 81.4887 18.3575 77.8323 18.3575H73.3815ZM75.2951 20.0932H77.6187C80.1731 20.0932 81.6852 21.7098 81.6852 24.4835C81.6852 27.2997 80.1987 28.8993 77.6187 28.8993H75.2951V20.0932Z" fill="white"/>
<path d="M90.1477 30.8137C92.8644 30.8137 94.5302 29.0014 94.5302 25.998C94.5302 23.0115 92.8558 21.1908 90.1477 21.1908C87.4311 21.1908 85.7567 23.0115 85.7567 25.998C85.7567 29.0014 87.4226 30.8137 90.1477 30.8137ZM90.1477 29.1886C88.5502 29.1886 87.6532 28.0229 87.6532 25.998C87.6532 23.99 88.5502 22.8159 90.1477 22.8159C91.7367 22.8159 92.6423 23.99 92.6423 25.998C92.6423 28.0144 91.7367 29.1886 90.1477 29.1886Z" fill="white"/>
<path d="M108.717 21.3694H106.88L105.223 28.4398H105.077L103.164 21.3694H101.404L99.4902 28.4398H99.3536L97.6877 21.3694H95.8253L98.3882 30.635H100.276L102.19 23.8113H102.335L104.257 30.635H106.162L108.717 21.3694Z" fill="white"/>
<path d="M110.832 30.635H112.669V25.2152C112.669 23.7688 113.531 22.8669 114.89 22.8669C116.248 22.8669 116.897 23.6071 116.897 25.0961V30.635H118.734V24.6366C118.734 22.433 117.589 21.1908 115.513 21.1908C114.112 21.1908 113.19 21.8119 112.737 22.8414H112.6V21.3694H110.832V30.635Z" fill="white"/>
<path d="M121.627 30.635H123.463V17.7534H121.627V30.635Z" fill="white"/>
<path d="M130.371 30.8137C133.088 30.8137 134.754 29.0014 134.754 25.998C134.754 23.0115 133.079 21.1908 130.371 21.1908C127.654 21.1908 125.98 23.0115 125.98 25.998C125.98 29.0014 127.646 30.8137 130.371 30.8137ZM130.371 29.1886C128.774 29.1886 127.877 28.0229 127.877 25.998C127.877 23.99 128.774 22.8159 130.371 22.8159C131.96 22.8159 132.866 23.99 132.866 25.998C132.866 28.0144 131.96 29.1886 130.371 29.1886Z" fill="white"/>
<path d="M140.226 29.2481C139.227 29.2481 138.5 28.7632 138.5 27.9293C138.5 27.1125 139.081 26.6786 140.363 26.5935L142.635 26.4489V27.2232C142.635 28.3718 141.61 29.2481 140.226 29.2481ZM139.756 30.7881C140.978 30.7881 141.995 30.2606 142.55 29.3332H142.695V30.635H144.463V24.3048C144.463 22.3479 143.148 21.1908 140.816 21.1908C138.706 21.1908 137.202 22.2118 137.014 23.8028H138.791C138.996 23.1477 139.705 22.7733 140.73 22.7733C141.986 22.7733 142.635 23.3264 142.635 24.3048V25.1046L140.115 25.2492C137.902 25.3854 136.655 26.3468 136.655 28.0144C136.655 29.7076 137.962 30.7881 139.756 30.7881Z" fill="white"/>
<path d="M150.696 30.7881C151.978 30.7881 153.063 30.184 153.618 29.1716H153.763V30.635H155.523V17.7534H153.686V22.8414H153.55C153.046 21.8204 151.969 21.2163 150.696 21.2163C148.347 21.2163 146.835 23.0711 146.835 25.998C146.835 28.9333 148.33 30.7881 150.696 30.7881ZM151.217 22.8584C152.755 22.8584 153.72 24.0751 153.72 26.0065C153.72 27.9464 152.764 29.146 151.217 29.146C149.663 29.146 148.731 27.9634 148.731 25.998C148.731 24.0496 149.671 22.8584 151.217 22.8584Z" fill="white"/>
<path d="M167.434 30.8137C170.15 30.8137 171.816 29.0014 171.816 25.998C171.816 23.0115 170.142 21.1908 167.434 21.1908C164.717 21.1908 163.043 23.0115 163.043 25.998C163.043 29.0014 164.708 30.8137 167.434 30.8137ZM167.434 29.1886C165.836 29.1886 164.939 28.0229 164.939 25.998C164.939 23.99 165.836 22.8159 167.434 22.8159C169.023 22.8159 169.928 23.99 169.928 25.998C169.928 28.0144 169.023 29.1886 167.434 29.1886Z" fill="white"/>
<path d="M174.247 30.635H176.084V25.2152C176.084 23.7688 176.947 22.8669 178.305 22.8669C179.664 22.8669 180.313 23.6071 180.313 25.0961V30.635H182.15V24.6366C182.15 22.433 181.005 21.1908 178.929 21.1908C177.528 21.1908 176.605 21.8119 176.152 22.8414H176.016V21.3694H174.247V30.635Z" fill="white"/>
<path d="M190.609 19.0637V21.412H189.131V22.952H190.609V28.1846C190.609 29.9713 191.42 30.686 193.462 30.686C193.821 30.686 194.163 30.6435 194.462 30.5924V29.0695C194.205 29.095 194.043 29.112 193.761 29.112C192.847 29.112 192.445 28.6866 192.445 27.7166V22.952H194.462V21.412H192.445V19.0637H190.609Z" fill="white"/>
<path d="M196.927 30.635H198.764V25.2237C198.764 23.8198 199.601 22.8754 201.104 22.8754C202.403 22.8754 203.095 23.6241 203.095 25.1046V30.635H204.932V24.6536C204.932 22.45 203.71 21.1993 201.728 21.1993C200.327 21.1993 199.345 21.8204 198.892 22.8584H198.747V17.7534H196.927V30.635Z" fill="white"/>
<path d="M211.558 22.7478C212.916 22.7478 213.804 23.6922 213.847 25.1471H209.148C209.251 23.7007 210.199 22.7478 211.558 22.7478ZM213.839 28.1335C213.497 28.8567 212.736 29.2566 211.626 29.2566C210.157 29.2566 209.208 28.2271 209.148 26.602V26.5H215.718V25.8618C215.718 22.952 214.155 21.1908 211.566 21.1908C208.943 21.1908 207.278 23.0711 207.278 26.032C207.278 28.9929 208.909 30.8137 211.575 30.8137C213.702 30.8137 215.188 29.7927 215.607 28.1335H213.839Z" fill="white"/>
<path d="M50.9825 42.1167C51.027 38.6706 52.8852 35.4099 55.833 33.605C53.9734 30.9598 50.8586 29.2827 47.6179 29.1817C44.1615 28.8204 40.8106 31.2416 39.0493 31.2416C37.2538 31.2416 34.542 29.2176 31.6218 29.2774C27.8154 29.3999 24.2669 31.5553 22.415 34.8696C18.4342 41.7338 21.4035 51.822 25.2168 57.3705C27.1247 60.0875 29.3544 63.1224 32.272 63.0148C35.1271 62.8969 36.1934 61.2016 39.6396 61.2016C43.0539 61.2016 44.0543 63.0148 47.0311 62.9464C50.0947 62.8968 52.0249 60.2173 53.8658 57.4746C55.2366 55.5387 56.2914 53.3991 56.9912 51.135C53.391 49.6184 50.9867 46.0099 50.9825 42.1167Z" fill="white"/>
<path d="M45.3598 25.5327C47.0302 23.5356 47.8531 20.9686 47.6538 18.377C45.1018 18.6439 42.7445 19.8587 41.0516 21.7792C39.3961 23.6556 38.5346 26.1774 38.6974 28.67C41.2503 28.6962 43.7601 27.5144 45.3598 25.5327Z" fill="white"/>
<path d="M6.17268 81.7388L6.55536 80.8149L6.17268 81.7388ZM0.760716 76.3268L1.6846 75.9442L0.760716 76.3268ZM246.238 76.3268L247.162 76.7095L246.238 76.3268ZM240.826 81.7388L241.209 82.6627L240.826 81.7388ZM246.238 6.67317L247.162 6.29048L246.238 6.67317ZM14.9995 1.5H232V-0.5H14.9995V1.5ZM246 15.5V67.5H248V15.5H246ZM232 81.5H14.9995V83.5H232V81.5ZM0.999512 67.5V15.5H-1.00049V67.5H0.999512ZM14.9995 81.5C12.6561 81.5 10.9487 81.4995 9.59603 81.4072C8.25237 81.3155 7.33206 81.1366 6.55536 80.8149L5.78999 82.6627C6.85101 83.1022 8.0144 83.3039 9.45988 83.4025C10.8964 83.5005 12.6835 83.5 14.9995 83.5V81.5ZM-1.00049 67.5C-1.00049 69.816 -1.00103 71.6031 -0.903018 73.0396C-0.804394 74.4851 -0.602649 75.6485 -0.163163 76.7095L1.6846 75.9442C1.36288 75.1675 1.18402 74.2471 1.09234 72.9035C1.00005 71.5509 0.999512 69.8434 0.999512 67.5H-1.00049ZM6.55536 80.8149C4.35011 79.9015 2.59804 78.1494 1.6846 75.9442L-0.163163 76.7095C0.95327 79.4048 3.09469 81.5462 5.78999 82.6627L6.55536 80.8149ZM246 67.5C246 69.8434 245.999 71.5509 245.907 72.9035C245.815 74.2471 245.636 75.1675 245.314 75.9442L247.162 76.7095C247.602 75.6485 247.803 74.4851 247.902 73.0396C248 71.6031 248 69.816 248 67.5H246ZM232 83.5C234.316 83.5 236.103 83.5005 237.539 83.4025C238.985 83.3039 240.148 83.1022 241.209 82.6627L240.444 80.8149C239.667 81.1366 238.747 81.3155 237.403 81.4072C236.05 81.4995 234.343 81.5 232 81.5V83.5ZM245.314 75.9442C244.401 78.1494 242.649 79.9015 240.444 80.8149L241.209 82.6627C243.904 81.5462 246.046 79.4048 247.162 76.7095L245.314 75.9442ZM232 1.5C234.343 1.5 236.05 1.50054 237.403 1.59283C238.747 1.68451 239.667 1.86337 240.444 2.18508L241.209 0.337325C240.148 -0.102161 238.985 -0.303905 237.539 -0.40253C236.103 -0.500542 234.316 -0.5 232 -0.5V1.5ZM248 15.5C248 13.184 248 11.3969 247.902 9.96037C247.803 8.51489 247.602 7.35149 247.162 6.29048L245.314 7.05585C245.636 7.83255 245.815 8.75286 245.907 10.0965C245.999 11.4491 246 13.1566 246 15.5H248ZM240.444 2.18508C242.649 3.09853 244.401 4.8506 245.314 7.05585L247.162 6.29048C246.046 3.59517 243.904 1.45376 241.209 0.337325L240.444 2.18508ZM14.9995 -0.5C12.6835 -0.5 10.8964 -0.500542 9.45988 -0.40253C8.0144 -0.303905 6.85101 -0.102161 5.78999 0.337325L6.55536 2.18508C7.33206 1.86337 8.25237 1.68451 9.59603 1.59283C10.9487 1.50054 12.6561 1.5 14.9995 1.5V-0.5ZM0.999512 15.5C0.999512 13.1566 1.00005 11.4491 1.09234 10.0965C1.18402 8.75286 1.36288 7.83255 1.6846 7.05585L-0.163163 6.29048C-0.602649 7.35149 -0.804394 8.51489 -0.903018 9.96037C-1.00103 11.3969 -1.00049 13.184 -1.00049 15.5H0.999512ZM5.78999 0.337325C3.09469 1.45376 0.95327 3.59517 -0.163163 6.29048L1.6846 7.05585C2.59804 4.8506 4.35011 3.09853 6.55536 2.18508L5.78999 0.337325Z" fill="white"/>
</svg>
