<svg width="197" height="22" viewBox="0 0 197 22" fill="none" xmlns="http://www.w3.org/2000/svg">
<path d="M33.6314 0.0736084H30.3358V21.9999H51.2838L52.9505 19.3098H33.6314V0.0736084Z" fill="white"/>
<path d="M62.307 9.50745L52.0414 0.0736084H47.2684L60.7539 12.345V21.9631H64.0495V12.345L77.4592 0.0736084H72.7242L62.307 9.50745Z" fill="white"/>
<path d="M79.2772 2.76373H91.2854V21.9999H94.581V2.76373H105.074L106.741 0.0736084H79.3151V2.76373H79.2772Z" fill="white"/>
<path d="M133.939 6.04346C133.939 2.32152 130.643 0.0736084 125.075 0.0736084H110.718V2.76373H124.62C129.81 2.76373 130.454 4.53257 130.454 6.04346C130.454 7.5912 129.81 9.36005 124.62 9.36005H110.718V21.9631H114.014V12.0502H124.431L131.136 21.9631H134.999L127.916 11.8291C131.817 10.8341 133.939 8.77043 133.939 6.04346Z" fill="white"/>
<path d="M164.471 0.0736084H140.795V2.87428H162.766L164.471 0.0736084Z" fill="white"/>
<path d="M160.493 9.58118H140.795V12.3818H158.789L160.493 9.58118Z" fill="white"/>
<path d="M140.795 21.9263H162.993L164.66 19.1256H140.757V21.9263H140.795Z" fill="white"/>
<path d="M0.106934 2.83717H23.7823L25.449 0.036499H0.106934V2.83717Z" fill="white"/>
<path d="M0.106934 10.5393V12.4187V22H3.06162V12.4187H19.8048L21.4716 9.61804H0.106934V10.5393Z" fill="white"/>
<path d="M185.04 10.9816L185.229 10.8342L196.631 0.0368511H192.464L183.146 8.84422L182.994 8.99163L173.486 0H169.319L180.873 10.9816L169.281 21.9263H173.448L182.956 12.9347L183.146 13.0821L192.464 21.8895H196.631L185.229 11.0921L185.04 10.9816Z" fill="white"/>
</svg>
